<?xml version="1.0" standalone="no"?>
<!DOCTYPE svg PUBLIC "-//W3C//DTD SVG 20010904//EN"
 "http://www.w3.org/TR/2001/REC-SVG-20010904/DTD/svg10.dtd">
<svg version="1.0" xmlns="http://www.w3.org/2000/svg"
 width="1300.000000pt" height="945.000000pt" viewBox="0 0 1300.000000 945.000000"
 preserveAspectRatio="xMidYMid meet">

<g transform="translate(0.000000,945.000000) scale(0.100000,-0.100000)"
fill="#000000" stroke="none">
<path d="M5195 9109 c-102 -12 -148 -25 -236 -69 -75 -38 -103 -60 -242 -190
-61 -56 -132 -153 -132 -179 0 -8 -13 -19 -30 -24 -44 -14 -63 -35 -98 -102
-25 -48 -31 -72 -31 -120 1 -66 23 -154 59 -230 13 -27 26 -61 29 -75 3 -14
25 -59 48 -100 24 -42 49 -94 56 -116 15 -50 15 -183 1 -244 -6 -25 -12 -52
-14 -60 -15 -69 -26 -101 -47 -140 -22 -41 -30 -46 -84 -61 -61 -17 -105 -36
-202 -88 -39 -20 -62 -43 -87 -82 -19 -30 -35 -59 -35 -66 0 -6 -11 -24 -24
-40 -13 -15 -33 -47 -44 -69 -12 -23 -28 -44 -37 -48 -64 -24 -405 -352 -405
-389 0 -7 -4 -17 -9 -22 -13 -15 -47 -120 -64 -200 -17 -76 -72 -292 -87 -340
-63 -201 -90 -299 -96 -345 -3 -30 -15 -98 -26 -150 -34 -165 -37 -183 -49
-280 -8 -72 -8 -120 2 -199 l12 -103 -24 -18 c-13 -10 -36 -21 -51 -24 -42 -8
-38 -57 14 -153 23 -43 67 -127 98 -187 37 -72 63 -112 78 -117 27 -10 29 3 3
39 -10 15 -46 83 -81 152 -34 69 -70 136 -80 150 -39 57 -35 66 53 119 104 62
235 127 442 221 59 27 220 82 355 121 60 18 100 39 100 54 0 9 -6 12 -16 8
-13 -5 -14 3 -9 58 4 35 11 80 16 99 63 254 111 426 119 428 16 6 12 24 -11
48 -12 13 -32 67 -50 135 -16 63 -38 141 -49 174 -10 33 -27 87 -36 120 -9 33
-23 83 -32 110 -9 28 -15 55 -14 62 4 20 -18 26 -100 29 -141 4 -328 27 -328
39 0 7 60 69 133 138 161 154 160 154 203 179 38 22 27 24 167 -19 80 -25 259
-197 311 -301 26 -51 86 -112 110 -112 14 0 26 10 36 33 7 17 21 40 30 50 16
16 20 14 76 -35 32 -29 75 -64 94 -77 40 -28 124 -98 182 -153 22 -21 44 -38
48 -38 4 0 34 -32 66 -71 33 -40 88 -102 124 -138 36 -36 73 -78 83 -93 20
-33 67 -40 67 -10 0 9 12 49 26 87 25 69 42 120 89 280 43 144 53 199 60 302
7 95 8 102 25 93 10 -6 27 -10 38 -10 10 0 27 -9 37 -20 22 -25 55 -26 55 -3
0 9 -11 28 -24 42 -13 15 -49 75 -80 134 -63 122 -61 124 45 62 31 -18 67 -36
80 -40 13 -4 33 -17 43 -28 24 -25 104 -141 114 -165 12 -30 86 -137 105 -150
9 -7 17 -20 17 -28 0 -8 4 -14 9 -14 5 0 15 -15 22 -32 7 -18 31 -51 54 -74
22 -23 55 -60 74 -83 29 -35 36 -39 50 -29 14 11 14 11 3 -3 -11 -14 -9 -24 8
-56 11 -22 30 -73 41 -113 33 -121 90 -227 158 -295 33 -33 61 -63 61 -66 0
-3 -20 -26 -44 -52 -43 -44 -99 -123 -139 -197 -11 -19 -30 -48 -42 -65 -60
-80 -105 -207 -86 -243 14 -26 -2 -38 -22 -18 -19 19 -83 55 -123 70 -17 6
-50 28 -72 48 l-41 37 14 93 c7 51 16 170 19 263 4 94 9 185 12 203 4 18 2 38
-4 45 -5 6 -15 44 -21 82 -7 39 -21 97 -31 130 -10 33 -22 76 -25 95 -17 90
-72 277 -87 297 -5 6 -16 9 -24 6 -16 -6 -16 -5 16 -113 18 -62 27 -97 56
-220 7 -30 18 -74 24 -98 6 -24 13 -61 15 -84 3 -22 8 -45 12 -51 9 -15 16
-75 17 -142 1 -133 -16 -404 -29 -465 -28 -135 -34 -189 -40 -330 -9 -229 -7
-222 -63 -247 -312 -144 -283 -138 -521 -117 -145 12 -483 113 -565 169 -97
66 -323 158 -453 185 l-62 12 6 49 c5 44 4 49 -13 48 -10 -1 -34 -1 -51 -1
-42 2 -42 21 -3 65 17 19 30 37 30 41 0 16 -29 2 -63 -30 -31 -29 -38 -42 -35
-68 3 -30 5 -31 56 -36 47 -4 52 -7 40 -21 -7 -9 -31 -21 -53 -27 -96 -27
-294 -176 -410 -308 -78 -89 -135 -169 -135 -192 0 -9 14 -29 32 -44 l33 -27
-47 -1 c-54 0 -149 -18 -162 -31 -20 -18 23 -18 124 0 102 19 106 19 131 1 30
-21 191 -80 219 -80 16 0 18 -6 13 -37 -9 -68 -24 -106 -95 -241 -68 -129 -69
-135 -63 -185 4 -29 11 -60 16 -69 5 -10 12 -37 15 -60 4 -23 12 -51 20 -63
12 -19 11 -20 -52 -22 -36 -1 -71 -7 -78 -12 -7 -6 -16 -8 -19 -5 -3 4 -30 1
-59 -6 -63 -14 -295 -97 -323 -116 -11 -7 -40 -20 -64 -29 -53 -18 -111 -60
-111 -80 0 -29 25 -67 54 -82 42 -22 167 -42 311 -49 88 -5 131 -11 162 -26
47 -22 193 -38 193 -21 0 6 -26 13 -57 17 -56 7 -95 25 -93 43 0 4 -12 9 -27
11 -40 5 -49 17 -33 46 18 35 123 85 195 94 65 8 74 22 23 35 -38 10 -80 -1
-172 -43 -75 -35 -89 -50 -90 -96 -1 -33 -2 -34 -41 -33 -22 0 -70 3 -107 8
-44 4 -72 3 -79 -3 -9 -8 -10 -8 -6 0 4 7 -10 14 -41 18 -62 8 -140 36 -146
53 -7 17 2 40 17 46 7 3 64 29 127 57 63 28 144 61 180 72 36 11 69 24 74 29
6 5 24 9 41 9 18 0 35 3 38 7 4 3 17 7 30 9 12 1 44 5 70 9 44 7 58 4 105 -21
4 -2 72 -192 82 -229 4 -16 17 -50 28 -75 18 -42 24 -47 88 -68 38 -13 88 -33
111 -43 24 -10 45 -19 49 -19 3 0 21 -12 41 -27 19 -15 44 -28 54 -30 10 -1
53 -21 96 -43 l78 -41 -125 5 c-127 6 -201 12 -255 22 -16 3 -66 9 -110 14
-43 4 -81 13 -83 19 -4 13 -34 15 -48 2 -5 -6 -31 -6 -64 0 -30 5 -91 13 -135
18 -44 5 -100 16 -125 24 -111 36 -218 61 -257 62 -22 0 -39 3 -37 6 2 4 -10
9 -26 13 -28 5 -30 9 -30 49 0 62 -37 91 -60 47 -10 -19 -9 -20 14 -14 24 6
26 3 26 -25 0 -17 -4 -31 -9 -31 -22 0 -39 13 -34 26 3 8 1 14 -5 14 -6 0 -12
-5 -14 -11 -3 -8 -16 -8 -47 1 -43 11 -43 12 -37 48 24 143 16 180 -22 105
-11 -21 -26 -51 -35 -68 l-16 -29 -41 42 c-22 24 -40 51 -40 61 0 24 97 112
152 139 68 32 210 71 376 102 84 15 156 31 160 35 8 8 -106 -3 -158 -15 -43
-10 -160 -25 -177 -21 -15 2 -220 -57 -248 -72 -11 -5 -50 -39 -87 -75 -59
-57 -66 -68 -61 -93 4 -23 2 -29 -11 -29 -11 0 -16 -7 -14 -22 1 -13 -1 -48
-5 -78 -4 -30 -9 -86 -11 -125 -2 -38 -9 -95 -15 -125 -5 -30 -12 -84 -15
-120 -8 -116 -63 -397 -90 -463 -7 -18 -19 -48 -26 -67 -49 -141 -75 -197
-130 -280 -35 -52 -85 -115 -111 -140 -88 -84 -194 -178 -249 -222 -30 -23
-69 -57 -87 -74 -17 -17 -73 -60 -123 -95 -51 -35 -107 -76 -125 -90 -38 -29
-249 -159 -327 -202 -28 -15 -90 -50 -136 -78 -47 -27 -109 -58 -138 -68 -29
-9 -59 -22 -66 -28 -18 -15 -108 -59 -138 -68 -14 -4 -58 -23 -98 -41 -41 -19
-75 -34 -78 -34 -11 0 -197 -76 -272 -111 -46 -21 -86 -39 -87 -39 -2 0 -31
-16 -64 -35 -65 -38 -72 -41 -69 -23 2 6 -5 14 -16 16 -15 3 -18 -1 -14 -22 4
-18 0 -30 -11 -36 -13 -8 -10 -10 14 -8 17 1 46 -5 65 -14 19 -9 96 -26 170
-38 115 -18 161 -21 315 -16 99 3 191 8 205 11 14 3 61 12 105 20 44 8 112 21
150 30 39 9 111 25 160 36 220 47 375 90 448 123 32 15 575 204 612 213 11 2
29 8 40 13 16 7 321 104 443 142 18 5 35 8 37 6 9 -9 -127 -134 -205 -188 -19
-14 -39 -28 -45 -32 -5 -5 -31 -24 -57 -44 -87 -64 -56 -70 92 -16 180 65 358
99 375 72 12 -20 -88 -134 -132 -151 -27 -10 -31 -39 -6 -39 9 0 46 18 82 39
124 74 262 102 331 66 32 -17 38 -41 19 -78 -14 -26 -97 -134 -131 -169 -12
-13 -50 -53 -83 -87 -32 -35 -84 -84 -115 -109 -59 -51 -91 -82 -157 -156 -78
-88 -44 -72 55 25 53 53 128 125 167 160 38 35 72 67 76 72 3 4 35 38 70 75
36 37 78 84 94 105 15 21 30 36 32 33 8 -8 -29 -70 -143 -239 -107 -157 -171
-269 -189 -327 -4 -14 -22 -37 -39 -52 -31 -27 -31 -28 -8 -34 24 -7 27 -15
11 -31 -7 -7 -7 -13 -1 -17 16 -10 238 92 317 145 22 14 69 41 105 59 66 33
184 104 385 233 161 103 188 119 246 150 30 17 48 32 41 36 -23 14 -30 55 -16
101 18 60 17 95 -3 116 -12 12 -17 34 -18 75 l0 58 175 175 c96 97 190 183
208 191 51 25 135 2 125 -34 -4 -17 -7 -18 -31 -5 -36 18 -62 17 -93 -4 -14
-9 -99 -90 -187 -179 -182 -182 -182 -184 -137 -273 24 -47 24 -51 10 -92 -17
-49 -19 -86 -5 -108 7 -12 22 -7 92 29 163 86 173 93 154 107 -10 7 -23 32
-30 56 -33 112 28 211 145 235 30 6 32 5 26 -18 -4 -13 -7 -32 -7 -42 0 -10
-3 -16 -7 -14 -5 3 -9 -7 -10 -21 -7 -119 -13 -148 -54 -257 -30 -80 -33 -109
-14 -145 16 -32 18 -32 72 -28 47 4 56 2 68 -16 28 -44 87 -247 105 -360 8
-50 22 -88 51 -137 38 -63 44 -68 82 -74 80 -12 629 0 667 15 91 35 115 40
183 40 39 0 117 7 171 14 97 14 100 16 143 59 28 27 47 57 53 81 16 70 -20
208 -66 257 -13 14 -24 31 -24 37 0 34 -43 91 -97 129 -32 23 -83 64 -113 91
l-55 50 84 0 c58 0 96 6 122 18 37 16 39 19 39 64 0 46 3 50 64 107 94 88 139
107 261 110 55 2 109 4 119 5 13 2 27 -11 46 -42 25 -43 71 -84 180 -163 64
-45 176 -82 224 -73 36 7 111 -27 254 -114 103 -63 163 -98 190 -110 12 -5 27
-21 34 -35 7 -15 19 -25 33 -25 25 0 65 -39 65 -63 0 -9 8 -17 18 -17 9 0 26
-13 37 -28 11 -16 57 -61 103 -101 45 -40 82 -76 82 -82 0 -5 5 -9 12 -9 6 0
19 -6 27 -14 26 -22 146 -47 194 -40 55 9 141 49 195 92 42 33 68 43 221 84
114 30 156 58 177 121 10 29 18 80 19 114 0 58 1 60 14 38 28 -46 171 -45 263
1 61 31 65 37 129 203 8 19 12 21 24 11 13 -10 21 -6 49 24 19 19 37 50 41 67
l7 32 257 -8 c141 -4 277 -7 302 -7 44 2 48 -1 101 -61 65 -74 113 -141 158
-220 l32 -59 -30 -31 c-66 -70 -209 -306 -195 -321 4 -4 8 -19 9 -34 1 -15 2
-35 3 -45 0 -10 22 -41 49 -69 l47 -51 85 6 c47 3 99 11 115 17 28 11 206 50
226 50 5 0 9 -8 9 -19 0 -29 64 -35 146 -12 228 64 296 80 354 84 36 3 72 8
80 11 36 14 325 35 475 36 66 0 176 -7 245 -16 69 -8 150 -17 180 -19 227 -16
261 -16 335 -5 44 7 90 17 102 24 12 6 38 43 58 81 21 39 41 75 46 81 13 16
119 227 119 237 0 5 11 33 25 63 14 30 25 59 25 65 0 6 -16 26 -35 44 -41 36
-105 139 -105 166 0 10 5 21 11 24 10 7 9 46 -6 300 -4 72 -33 304 -51 405
-37 207 -69 310 -137 439 -35 67 -52 95 -92 151 -24 34 -153 155 -192 180
l-42 27 52 25 c58 29 157 106 157 122 0 6 9 17 21 24 38 24 61 97 66 206 4 87
1 115 -22 206 -15 58 -28 115 -29 127 -1 15 -17 32 -46 51 -25 16 -66 51 -91
78 -70 75 -149 171 -149 181 0 5 -8 16 -17 25 -32 30 -42 46 -93 145 -28 54
-70 117 -93 141 -54 56 -160 108 -265 129 -78 16 -88 16 -164 1 -79 -17 -191
-65 -263 -114 -20 -13 -38 -24 -41 -24 -3 0 -29 -11 -57 -24 -33 -15 -87 -28
-147 -35 -266 -31 -285 -40 -337 -156 -56 -124 -61 -138 -74 -185 -11 -44 -10
-47 28 -110 22 -36 52 -83 67 -104 14 -21 32 -60 40 -86 14 -46 13 -48 -22
-121 -33 -69 -35 -80 -34 -164 1 -88 0 -91 -30 -122 -18 -18 -37 -33 -44 -33
-7 0 -14 -5 -16 -11 -2 -7 -9 -5 -17 5 -12 14 -12 16 3 10 19 -7 20 7 5 56
-11 35 -41 146 -74 274 -11 39 -29 80 -44 97 -66 73 -203 209 -233 230 -18 12
-47 34 -65 48 -67 55 -132 98 -180 120 -14 6 -24 23 -28 43 -10 51 -2 141 13
146 6 2 12 -4 12 -12 0 -15 3 -15 27 -3 20 11 34 12 56 4 32 -11 52 5 41 33
-14 34 -16 98 -4 121 16 31 100 159 120 182 8 10 30 35 49 55 76 84 101 120
105 155 4 29 2 37 -11 37 -13 0 -14 7 -9 39 5 36 4 39 -14 34 -17 -5 -19 -1
-15 23 2 16 7 67 10 114 3 47 8 96 10 110 2 14 7 41 10 60 7 43 -7 60 -60 79
-22 7 -46 18 -53 24 -26 21 -52 87 -78 199 -15 62 -28 115 -30 117 -2 3 -15
-6 -29 -19 -25 -23 -26 -23 -60 -7 -20 9 -42 17 -49 17 -14 0 -105 94 -133
137 -17 25 -43 31 -43 10 0 -8 -9 -22 -20 -32 -20 -18 -20 -17 -20 34 0 35 -4
53 -14 57 -8 3 -43 -13 -78 -36 -105 -68 -177 -77 -170 -21 7 66 7 66 -16 69
-26 4 -132 -35 -132 -48 0 -4 -15 -17 -34 -28 -46 -27 -98 -105 -103 -156 -6
-45 -11 -49 -110 -87 -61 -23 -66 -35 -64 -131 1 -37 -2 -68 -6 -68 -5 0 -14
-12 -21 -27 -7 -16 -24 -46 -37 -68 -21 -33 -25 -49 -22 -92 2 -29 1 -53 -2
-53 -4 0 -15 10 -26 22 -13 16 -20 19 -23 9 -2 -7 9 -25 25 -40 25 -22 30 -35
30 -74 1 -31 -3 -47 -11 -47 -18 0 -48 -37 -86 -104 l-33 -58 6 -142 c3 -98
10 -155 22 -186 10 -25 18 -52 20 -60 6 -40 27 -98 45 -125 12 -16 25 -40 30
-53 5 -12 20 -26 33 -31 12 -5 28 -16 35 -24 7 -8 52 -27 100 -43 100 -31 99
-31 107 -64 5 -23 1 -26 -57 -44 -35 -11 -90 -32 -123 -47 -33 -15 -88 -39
-123 -55 -55 -25 -66 -34 -93 -83 -29 -53 -92 -229 -139 -391 -13 -41 -38
-120 -57 -175 -33 -96 -62 -187 -83 -267 l-11 -37 -59 35 c-81 47 -126 51
-229 20 -47 -14 -89 -26 -94 -26 -12 0 -2 590 12 660 6 30 15 114 21 185 5 72
14 154 18 183 l9 53 -103 187 c-122 223 -157 281 -193 321 -14 16 -39 46 -56
66 -16 20 -41 43 -55 50 -28 14 -292 35 -444 35 -93 0 -432 27 -446 35 -4 2
-45 9 -93 15 -47 6 -116 22 -154 36 -37 14 -86 29 -108 33 -40 7 -63 30 -122
125 l-21 35 36 12 c20 7 73 13 117 15 90 2 122 12 174 53 40 32 87 120 78 145
-7 19 -67 22 -98 6 -10 -6 -44 -15 -74 -21 -51 -9 -61 -8 -112 15 -63 29 -74
31 -119 14 -26 -9 -42 -8 -101 12 l-69 22 -3 67 c-3 82 20 411 29 411 3 0 19
-13 34 -29 16 -16 50 -39 77 -51 27 -11 49 -24 49 -28 0 -4 14 -15 30 -24 37
-21 38 -47 5 -78 -14 -13 -25 -34 -25 -46 0 -25 27 -36 175 -69 39 -9 101 -31
138 -49 67 -32 70 -33 110 -19 37 13 155 68 188 89 7 4 60 7 118 5 217 -4 439
27 576 80 86 33 327 89 405 94 41 3 136 7 211 9 131 4 140 3 220 -26 46 -16
103 -33 126 -37 23 -4 49 -13 57 -20 12 -10 30 -8 98 15 111 36 135 49 188 99
91 85 179 136 267 155 70 14 92 33 123 103 14 31 29 49 44 53 15 3 30 20 41
44 15 33 15 45 5 92 -7 30 -18 61 -24 70 -14 18 -75 47 -126 58 -19 4 -57 17
-85 28 -127 51 -185 55 -268 18 l-55 -24 5 79 c7 99 -4 119 -82 144 -74 23
-106 11 -105 -37 2 -56 -16 -106 -49 -134 -17 -14 -31 -31 -31 -38 0 -7 -13
-22 -30 -34 -42 -32 -137 -160 -152 -207 -13 -38 -15 -40 -73 -51 -33 -7 -82
-17 -110 -22 -103 -21 -353 -1 -605 50 -219 43 -372 67 -477 74 -62 3 -113 11
-113 16 0 51 -200 175 -241 150 -24 -15 -42 -6 -90 45 -76 80 -119 164 -170
333 -24 81 -42 109 -130 210 -31 36 -71 90 -90 120 -18 30 -46 71 -62 90 -16
19 -54 76 -85 125 -109 174 -114 180 -167 205 -27 13 -52 27 -55 31 -7 10
-168 79 -184 79 -7 0 -22 9 -34 20 -12 11 -23 20 -25 20 -3 0 -34 20 -70 44
-62 41 -65 45 -48 60 13 12 40 16 113 16 108 0 109 1 133 75 9 28 22 64 30 80
89 193 87 186 80 250 -6 64 -7 63 68 195 14 25 37 81 52 125 l26 80 -21 56
-22 57 21 38 c12 22 31 51 43 66 48 61 28 350 -33 469 -11 22 -17 44 -13 50 3
6 -2 19 -12 30 -21 23 -13 24 26 4 17 -9 30 -22 30 -30 0 -8 5 -15 10 -15 6 0
10 3 10 8 0 20 -33 50 -82 72 -59 28 -72 36 -96 64 -9 11 -30 33 -46 48 l-28
28 33 -5 c26 -4 23 -1 -16 13 -27 10 -61 24 -75 32 -15 8 -56 15 -105 16 -44
0 -96 2 -115 3 -34 2 -34 3 -10 12 14 6 40 8 57 5 18 -2 35 0 38 5 4 5 48 9
99 9 107 0 196 -23 204 -52 6 -24 32 -23 32 1 0 21 -27 41 -80 60 -19 7 -123
17 -230 21 -107 5 -211 11 -230 13 -19 3 -66 1 -105 -4z m145 -39 c0 -5 -6
-10 -14 -10 -23 0 -167 -49 -192 -65 -24 -16 -33 -45 -13 -45 6 0 17 7 26 16
9 8 22 13 31 9 8 -3 20 -1 26 3 31 24 110 34 248 30 135 -3 146 -4 176 -28
101 -78 128 -109 80 -91 -55 19 -251 22 -270 3 -20 -20 7 -40 32 -24 28 17 42
15 35 -7 -7 -23 21 -37 41 -20 17 14 119 4 207 -20 61 -17 62 -18 94 -81 35
-69 73 -207 73 -265 0 -34 -2 -36 -16 -24 -10 8 -39 13 -73 13 -52 0 -59 -3
-103 -45 -44 -41 -59 -68 -40 -70 107 -11 212 -46 212 -69 0 -14 -12 -13 -53
5 -20 8 -63 15 -96 15 -68 0 -69 -1 -101 -96 -21 -61 -18 -67 45 -71 104 -6
148 -12 158 -22 6 -6 11 -35 11 -63 1 -55 -41 -161 -106 -269 -24 -40 -28 -57
-28 -125 0 -51 -6 -89 -15 -108 -8 -15 -15 -34 -15 -41 0 -7 -7 -18 -15 -25
-8 -7 -15 -21 -15 -31 0 -10 -12 -39 -26 -64 -14 -26 -27 -57 -28 -69 -5 -43
-11 -45 -146 -45 -71 0 -141 -3 -154 -7 -19 -5 -33 2 -63 29 -21 20 -49 44
-63 55 -14 11 -42 35 -62 55 -41 39 -156 108 -214 129 -21 7 -62 36 -92 65
l-54 52 6 68 c4 37 10 83 13 101 4 28 2 32 -16 32 -22 0 -22 -1 -26 -40 -1
-14 -5 -51 -9 -82 -15 -114 13 -153 166 -236 37 -20 67 -41 66 -47 -2 -5 10
-39 27 -75 20 -45 30 -86 33 -133 3 -45 8 -67 16 -64 24 8 9 150 -23 218 -12
23 -19 44 -17 47 9 9 92 -60 214 -177 44 -42 47 -43 94 -38 26 3 48 5 48 3 0
-2 -7 -23 -16 -47 -9 -25 -17 -77 -17 -119 -1 -65 4 -85 35 -156 l36 -81 -26
-49 c-15 -27 -27 -50 -28 -52 -1 -2 -39 26 -83 63 -121 97 -151 114 -233 134
-95 23 -199 60 -218 77 -8 7 -27 17 -43 23 -32 13 -34 32 -6 77 17 28 18 34 5
34 -8 0 -17 -8 -21 -17 -3 -10 -14 -28 -24 -40 l-19 -23 -41 23 c-22 12 -41
25 -41 28 0 4 27 40 59 81 68 87 127 186 116 196 -4 4 -10 1 -12 -5 -4 -12
-84 -133 -128 -194 -11 -16 -32 -38 -48 -49 l-27 -21 -53 30 c-95 56 -93 54
-61 97 16 20 40 56 54 80 14 24 43 74 64 111 37 63 71 171 80 253 14 126 17
192 8 203 -5 7 -12 26 -16 42 -4 17 -25 60 -47 97 -21 36 -39 71 -39 77 0 6
-4 19 -9 29 -5 9 -18 37 -29 62 -10 25 -27 63 -36 85 -32 73 -37 163 -10 223
25 60 42 87 56 93 55 27 116 49 133 48 11 -1 54 2 97 6 121 12 179 -15 65 -30
-28 -4 -69 -16 -89 -26 -21 -11 -45 -19 -54 -19 -19 0 -162 -69 -171 -83 -14
-22 16 -29 64 -14 73 24 118 30 168 23 42 -7 60 -23 33 -30 -66 -17 -190 -61
-194 -68 -14 -22 14 -28 55 -13 24 8 60 15 81 15 46 0 56 -18 65 -120 4 -41
15 -106 26 -145 23 -83 25 -137 6 -129 -16 6 -47 67 -47 92 0 35 -62 217 -78
230 -16 12 -39 11 -92 -2 -28 -8 -70 -65 -70 -96 0 -51 62 -147 140 -215 6 -5
16 -18 23 -28 9 -12 26 -18 59 -19 34 0 53 -7 72 -25 18 -16 33 -22 46 -18 25
8 25 12 -5 131 -13 54 -31 142 -38 194 -12 80 -12 99 -1 122 8 15 14 36 14 47
0 11 4 22 8 25 5 3 14 31 21 63 8 34 25 72 43 94 60 75 24 93 -166 84 -141 -7
-137 -9 -88 43 6 7 12 17 12 20 0 4 24 32 53 62 160 165 272 234 422 259 72
12 185 13 185 1z m-663 -772 c5 -7 17 -40 27 -73 10 -33 29 -91 42 -129 40
-116 31 -123 -53 -38 -55 54 -77 85 -103 142 -15 32 3 97 28 103 32 9 50 7 59
-5z m1097 -37 c3 -5 -5 -12 -18 -15 -14 -3 -29 -18 -36 -36 -12 -29 -50 -61
-50 -42 0 33 26 76 54 88 37 16 43 17 50 5z m26 -75 c0 -2 -3 -11 -6 -20 -9
-23 -24 -20 -24 4 0 11 7 20 15 20 8 0 15 -2 15 -4z m-1310 -833 c-1 -19 -82
-133 -94 -133 -4 0 -25 12 -47 27 -31 20 -42 24 -52 14 -14 -14 7 -33 92 -83
30 -17 77 -47 105 -65 28 -18 71 -41 96 -50 25 -9 56 -24 70 -33 81 -54 238
-116 365 -146 66 -15 136 -51 180 -92 11 -10 35 -29 53 -41 17 -12 32 -28 32
-35 0 -7 11 -19 25 -26 20 -10 27 -11 40 0 20 17 75 114 75 132 0 24 28 44 42
30 15 -15 -5 -178 -37 -292 -13 -47 -28 -111 -35 -142 -6 -32 -15 -60 -19 -63
-5 -2 -17 5 -27 16 -11 12 -43 37 -73 56 -30 19 -89 67 -131 106 -42 40 -92
84 -111 99 -182 145 -184 148 -80 156 43 3 75 -2 122 -18 86 -30 145 -59 160
-76 15 -18 29 -18 29 1 0 52 -291 156 -355 127 -11 -5 -39 -18 -63 -27 -46
-20 -202 -173 -202 -200 0 -32 -30 -12 -69 46 -23 34 -41 65 -41 69 0 16 -187
205 -230 232 -25 16 -76 38 -113 49 -37 11 -71 27 -74 34 -3 8 4 29 16 47 11
18 33 58 50 88 28 53 80 110 101 110 5 0 10 4 10 8 0 7 104 63 140 75 23 8 50
8 50 0z m987 -256 c46 -31 82 -65 97 -91 35 -58 107 -208 103 -213 -6 -5 -158
73 -185 94 -20 17 -21 20 -8 38 15 20 16 19 45 -12 16 -18 37 -33 46 -33 14 0
14 4 -3 28 -11 15 -32 38 -46 52 -33 30 -52 21 -81 -39 -11 -22 -23 -41 -26
-41 -13 0 -59 131 -59 168 0 55 19 114 33 106 7 -4 45 -30 84 -57z m78 -284
c42 -20 46 -37 6 -28 -16 3 -32 2 -35 -3 -9 -16 21 -34 44 -27 20 6 21 4 19
-52 -2 -62 -8 -81 -18 -66 -3 6 -19 16 -36 24 -16 8 -30 20 -29 27 1 6 2 41 3
77 0 36 3 65 6 65 2 0 20 -8 40 -17z m-756 -132 c-21 -28 -39 -33 -39 -10 0
15 54 62 58 50 2 -5 -7 -24 -19 -40z m182 -47 l36 -31 -21 -26 c-12 -14 -29
-36 -38 -49 -11 -14 -20 -19 -25 -13 -4 6 -20 16 -35 24 -14 7 -43 31 -63 51
l-37 38 21 30 c11 17 21 34 21 39 0 5 5 14 11 20 12 12 44 -9 130 -83z m550
-8 c15 -13 34 -26 41 -28 9 -3 9 -17 -1 -63 l-13 -59 -35 37 c-18 21 -39 35
-44 31 -7 -4 -3 -14 9 -28 24 -26 52 -80 52 -100 0 -20 -21 -66 -30 -66 -4 0
-10 14 -14 31 -3 17 -15 42 -26 56 -11 14 -20 31 -20 37 0 15 44 176 49 176 2
0 16 -11 32 -24z m-1597 -46 c88 -5 163 -13 167 -17 9 -10 59 -162 59 -180 0
-7 11 -47 26 -90 14 -43 36 -120 50 -172 14 -52 34 -111 44 -130 17 -35 17
-39 0 -96 -9 -33 -27 -105 -39 -160 -13 -55 -34 -136 -47 -181 -13 -44 -24
-101 -24 -126 0 -77 -10 -109 -38 -119 -14 -5 -78 -25 -141 -44 -64 -19 -149
-50 -189 -69 -39 -20 -76 -36 -82 -36 -10 0 -225 -101 -303 -142 -21 -11 -42
-16 -46 -12 -5 5 -13 49 -19 98 -8 69 -7 112 4 185 20 139 44 269 60 320 8 25
14 59 14 77 0 47 19 132 41 179 10 22 20 51 22 65 2 14 7 32 10 40 3 8 20 74
38 145 17 72 36 141 41 155 9 23 47 190 53 235 2 11 10 36 19 56 15 36 16 36
68 33 29 -2 125 -8 212 -14z m1124 -13 l22 -23 -20 -53 c-10 -30 -21 -55 -23
-57 -6 -7 -57 37 -57 48 0 15 44 107 51 108 3 0 15 -10 27 -23z m89 -79 c36
-39 86 -81 128 -107 76 -48 95 -73 109 -146 8 -38 16 -96 18 -128 l5 -59 -69
74 c-52 56 -67 78 -62 93 21 71 27 116 17 126 -9 9 -14 0 -23 -32 -22 -86 -24
-86 -74 -27 -37 43 -42 58 -27 86 4 9 11 29 15 45 5 20 3 27 -9 27 -8 0 -15
-4 -15 -9 0 -5 -7 -25 -15 -45 l-16 -37 -33 26 c-32 24 -33 28 -23 58 22 69
30 87 36 87 4 0 21 -15 38 -32z m332 -175 c1 -17 5 -33 11 -35 10 -3 -34 -156
-49 -171 -5 -5 -11 20 -15 54 -4 35 -14 79 -22 99 -14 32 -13 39 5 80 11 25
23 59 27 75 6 30 7 30 24 -20 10 -27 19 -64 19 -82z m3140 -282 c35 -27 39
-100 12 -189 -22 -72 -27 -122 -13 -122 13 0 32 -64 32 -109 0 -23 -9 -63 -20
-89 -24 -56 -30 -123 -13 -129 8 -3 12 4 11 19 -1 13 9 48 21 78 39 94 41 100
41 124 0 12 -9 55 -19 95 l-19 72 41 26 c107 67 167 68 330 2 56 -23 109 -42
119 -43 9 -1 24 -8 32 -16 15 -12 15 -14 0 -31 -21 -24 -88 -15 -125 16 -18
14 -42 22 -72 23 -56 2 -96 17 -103 37 -9 22 -24 18 -24 -5 0 -31 -57 -61 -99
-54 -31 6 -33 5 -26 -17 4 -13 11 -28 15 -34 5 -5 13 -29 20 -53 9 -34 8 -50
-2 -73 -7 -16 -16 -29 -19 -29 -4 0 -9 -8 -12 -17 -4 -10 -13 -28 -22 -39 -14
-20 -14 -22 0 -28 10 -4 19 2 24 17 5 13 16 29 25 36 14 12 16 9 16 -32 0 -27
-6 -49 -15 -57 -9 -7 -12 -22 -9 -40 4 -15 1 -31 -5 -34 -6 -4 -11 -18 -11
-31 0 -25 -36 -65 -74 -83 -150 -70 -191 -71 -331 -2 l-70 35 -185 -1 c-239 0
-245 -1 -375 -30 -143 -33 -178 -42 -250 -70 -66 -25 -127 -42 -171 -48 -16
-2 -52 -9 -80 -15 -28 -5 -118 -13 -200 -17 -183 -8 -280 5 -307 42 -28 38
-47 102 -47 158 0 88 87 304 138 344 31 24 279 11 437 -23 62 -13 245 -48 315
-60 14 -3 50 -9 80 -15 177 -34 375 -38 527 -9 l111 21 22 57 c11 32 31 68 43
82 13 13 37 45 55 70 18 25 49 53 69 63 28 13 34 21 30 37 -4 15 0 23 12 26
25 6 50 62 57 128 6 51 9 55 33 55 14 0 37 -9 50 -19z m-1935 -256 c15 -8 34
-15 40 -15 14 0 96 -68 96 -80 0 -4 -14 -10 -31 -14 -38 -7 -48 -20 -96 -111
-115 -223 -109 -435 14 -504 22 -12 23 -11 -52 -45 -100 -47 -125 -45 -260 15
-38 17 -140 50 -169 54 -16 2 -31 6 -33 8 -2 3 26 33 63 68 37 35 70 69 75 74
54 65 105 122 116 128 16 10 17 47 1 47 -11 0 -70 -59 -136 -136 l-33 -39 4
40 c5 46 33 112 71 168 14 21 26 41 26 45 0 4 18 30 40 59 21 29 46 65 54 82
19 37 152 171 169 171 6 0 25 -7 41 -15z m2202 -43 c6 -4 14 -21 18 -38 6 -29
4 -31 -44 -54 -27 -13 -51 -22 -53 -19 -1 2 -7 18 -14 36 -10 30 -9 34 21 57
32 26 53 31 72 18z m144 -34 c33 -16 62 -22 105 -21 58 1 59 1 39 -16 -15 -12
-38 -16 -90 -15 -149 3 -148 3 -159 53 l-7 34 33 -7 c18 -3 54 -16 79 -28z
m179 -82 c-12 -21 -30 -36 -47 -39 -15 -3 -47 -10 -72 -16 -72 -16 -160 -14
-160 4 0 27 -20 16 -26 -15 -5 -24 -14 -32 -43 -40 -51 -14 -51 -14 -51 28 0
34 4 40 43 61 34 19 52 22 81 17 20 -4 82 -7 138 -7 89 0 104 3 122 21 31 30
38 24 15 -14z m-89 -100 c0 -16 -21 -40 -54 -61 -18 -12 -62 -25 -140 -41 -11
-2 -33 -17 -50 -32 -17 -16 -46 -36 -63 -45 l-33 -15 0 28 c0 16 4 31 9 34 4
3 11 19 14 35 4 20 17 35 36 46 37 19 55 19 48 1 -3 -8 1 -20 9 -26 12 -11 14
-7 14 24 0 20 1 36 3 37 1 0 45 7 97 14 52 7 98 13 103 14 4 0 7 -5 7 -13z
m-4924 -461 c16 -8 41 -15 55 -15 46 0 193 -42 267 -76 41 -19 77 -34 82 -34
5 0 26 -10 47 -22 133 -77 251 -128 418 -181 110 -34 255 -57 394 -61 98 -3
122 -1 153 15 21 11 42 19 47 19 5 0 61 25 124 55 129 62 178 69 249 35 51
-24 90 -25 124 -3 24 16 28 15 77 -10 29 -14 63 -27 77 -28 32 -4 96 9 137 27
54 24 66 14 40 -33 -34 -61 -115 -95 -233 -99 -89 -2 -147 -19 -166 -48 -12
-17 -10 -23 21 -58 15 -18 37 -48 47 -67 11 -18 24 -42 30 -53 13 -21 105
-117 156 -163 18 -16 62 -42 97 -57 71 -30 128 -67 136 -86 2 -7 0 -23 -6 -36
-11 -22 -12 -23 -57 -8 -151 48 -219 78 -225 103 -3 11 -11 17 -19 14 -8 -3
-43 14 -77 37 -35 24 -70 48 -79 53 -10 6 -21 16 -25 23 -4 6 -15 12 -22 12
-28 0 -15 -29 30 -66 24 -21 43 -39 42 -40 -1 -1 -29 4 -62 12 -77 18 -95 18
-95 -1 0 -15 19 -22 80 -29 19 -3 68 -12 108 -20 40 -9 76 -16 78 -16 3 0 2
-5 -2 -11 -4 -7 -52 -9 -153 -5 -132 4 -217 18 -237 39 -4 4 -14 7 -23 7 -8 0
-24 8 -35 19 -12 10 -46 32 -77 48 -31 17 -78 47 -105 66 -62 46 -88 58 -194
90 -55 17 -122 29 -190 33 -58 4 -118 8 -135 9 -163 13 -406 0 -527 -26 -60
-13 -389 -13 -448 1 -25 5 -79 17 -120 26 -74 15 -174 50 -238 82 -38 19 -102
70 -102 81 0 21 89 137 167 216 111 113 286 242 334 245 4 0 20 -7 35 -15z
m4837 -16 c23 -12 60 -23 84 -24 30 -3 49 -11 66 -28 21 -23 26 -25 72 -16 27
5 64 7 82 4 18 -3 49 -8 69 -11 41 -6 104 -64 104 -95 0 -13 11 -19 45 -25 32
-4 52 -14 69 -35 30 -35 43 -88 25 -99 -16 -11 -13 -132 6 -177 8 -18 11 -33
6 -33 -4 0 -16 -6 -26 -14 -18 -13 -18 -15 -2 -31 14 -13 16 -27 11 -68 -4
-29 -12 -59 -19 -67 -21 -27 -25 -49 -9 -65 20 -19 64 -19 90 0 30 22 47 17
71 -21 35 -54 40 -106 15 -146 -23 -36 -75 -81 -116 -99 -20 -10 -30 -9 -51 5
-17 11 -31 14 -41 8 -13 -7 -10 -13 18 -30 30 -19 34 -26 30 -54 -2 -18 -11
-40 -19 -49 -31 -37 -26 -185 12 -315 9 -30 -32 -66 -120 -108 -149 -71 -249
-80 -403 -34 -83 24 -96 38 -107 111 -3 27 -12 66 -20 86 l-13 38 73 6 c43 4
88 15 107 25 18 10 45 22 59 25 47 12 254 114 287 141 17 15 32 36 32 47 0 19
-1 19 -31 2 -156 -89 -211 -117 -259 -132 -19 -6 -69 -22 -110 -37 -65 -22
-85 -25 -149 -19 -95 8 -191 32 -216 55 -11 10 -30 23 -43 29 -12 7 -37 42
-56 79 -57 114 -91 279 -83 407 6 89 23 138 67 188 l29 34 67 -9 c41 -6 70 -6
76 0 11 11 14 114 4 131 -4 6 -34 11 -67 11 -66 0 -79 12 -63 58 12 35 73 49
116 27 27 -13 32 -13 54 2 l25 16 -24 31 c-21 27 -32 32 -82 36 l-58 5 69 75
c92 100 113 120 128 120 7 0 25 14 41 30 16 17 30 30 32 30 2 0 23 -10 46 -21z
m-229 -28 c13 -14 15 -24 9 -36 -9 -16 -11 -16 -27 1 -14 13 -15 19 -4 25 10
7 10 9 1 9 -7 0 -13 5 -13 10 0 16 15 12 34 -9z m-93 -454 c-18 -18 -33 11
-18 35 12 18 12 18 21 -2 6 -14 5 -25 -3 -33z m77 -13 c-3 -30 -15 -38 -36
-25 -10 6 -9 14 5 39 20 35 36 28 31 -14z m1025 -94 c10 -11 8 -12 -8 -5 -11
4 -45 11 -75 16 l-55 8 63 -3 c36 -1 67 -8 75 -16z m-4491 -59 c37 -5 81 -16
99 -25 18 -9 42 -16 54 -16 13 0 28 -7 35 -15 7 -8 18 -15 25 -15 6 0 20 -9
30 -20 10 -11 23 -20 30 -20 7 0 23 -10 36 -21 13 -12 40 -29 59 -38 37 -17
113 -70 118 -83 2 -5 13 -8 25 -8 12 0 55 -7 96 -15 47 -10 133 -16 240 -17
142 -1 171 -4 197 -20 17 -10 39 -18 48 -18 9 0 42 -9 73 -20 88 -31 111 -27
130 17 13 33 13 41 2 62 -15 26 -96 89 -116 90 -52 3 -231 136 -211 157 3 2
27 -5 54 -17 27 -12 85 -28 129 -35 44 -7 103 -17 131 -23 92 -17 274 -31 477
-36 109 -3 239 -10 288 -16 50 -6 96 -8 104 -5 23 8 205 -219 205 -255 0 -6
13 -29 28 -52 28 -40 101 -173 148 -266 15 -31 19 -51 13 -65 -11 -29 -29
-177 -29 -250 -1 -34 -7 -97 -15 -141 -12 -69 -27 -546 -30 -940 0 -101 14
-497 22 -585 3 -41 7 -93 8 -115 1 -22 5 -67 9 -100 l8 -60 -83 -15 c-46 -8
-134 -16 -195 -17 -93 -1 -119 -5 -165 -26 -30 -14 -67 -30 -84 -36 -34 -13
-157 -129 -254 -239 -71 -80 -80 -83 -172 -56 -58 17 -139 69 -231 147 l-57
48 3 52 c2 31 13 72 28 102 14 28 38 91 53 140 14 50 40 131 55 180 28 86 46
185 71 380 6 50 15 106 20 125 5 19 11 82 14 140 3 58 11 140 16 184 l10 79
-43 45 c-24 25 -36 41 -28 36 8 -4 26 -21 39 -37 16 -19 27 -25 34 -18 10 10
14 499 5 600 l-4 43 61 28 c33 16 89 40 125 54 36 13 86 33 112 43 27 10 48
22 48 27 0 4 -8 5 -17 1 -70 -29 -150 -55 -169 -55 -13 0 -52 -13 -86 -30 -34
-16 -66 -30 -72 -30 -5 0 -23 -12 -40 -27 -41 -38 55 74 129 150 33 35 83 89
110 121 28 32 67 76 89 98 21 21 35 42 31 46 -3 4 -25 -13 -47 -38 -85 -94
-151 -160 -161 -160 -9 0 -34 -20 -81 -66 -11 -11 -48 -58 -82 -105 -48 -68
-68 -87 -100 -98 -21 -7 -79 -28 -129 -45 -107 -39 -205 -66 -260 -72 -22 -3
-47 -7 -55 -10 -54 -20 -217 -31 -232 -16 -4 4 -5 67 -1 139 l6 131 176 -3
c97 -1 218 -7 269 -13 104 -12 242 -42 242 -53 0 -4 9 -5 20 -2 22 6 28 42 8
47 -7 2 -39 11 -71 20 -81 24 -210 37 -442 44 l-200 7 3 30 c2 17 10 37 17 45
12 14 12 20 -4 45 -9 17 -23 45 -29 63 -6 18 -20 45 -31 60 -10 15 -35 72 -54
127 -20 55 -43 118 -51 140 -8 22 -15 48 -16 57 0 10 -9 22 -19 28 -11 5 -26
16 -33 22 -19 18 -76 58 -82 58 -3 0 -21 11 -41 24 -102 70 -353 164 -564 211
-157 36 -320 33 -481 -7 -65 -16 -222 -80 -323 -133 -49 -25 -93 -45 -99 -45
-18 0 -68 -41 -62 -51 11 -18 68 2 241 87 94 46 187 87 205 91 18 3 46 13 63
21 22 11 70 15 195 16 150 1 175 -2 278 -27 62 -16 149 -42 195 -58 45 -16 89
-29 98 -29 14 0 56 -18 179 -78 25 -12 78 -46 119 -74 59 -42 78 -61 93 -98
10 -25 25 -56 32 -70 8 -14 17 -41 21 -60 11 -52 55 -160 82 -200 13 -19 23
-42 23 -51 0 -9 7 -22 15 -29 12 -10 12 -16 4 -26 -6 -8 -9 -20 -6 -28 3 -7 1
-18 -5 -24 -5 -5 -14 -132 -19 -293 -5 -156 -14 -331 -20 -389 -6 -58 -14
-150 -19 -205 -13 -154 -20 -226 -25 -270 -17 -139 -20 -190 -18 -366 1 -181
3 -202 27 -278 36 -115 37 -114 -31 -85 -92 40 -143 66 -205 107 -84 55 -157
54 -158 -1 0 -13 14 -20 105 -48 72 -22 82 -27 162 -81 34 -23 71 -44 82 -48
12 -3 21 -11 21 -16 0 -13 -125 -3 -184 16 -63 19 -106 20 -106 1 0 -22 9 -25
130 -41 61 -8 116 -17 121 -20 5 -4 9 -22 9 -41 0 -31 4 -37 43 -54 23 -11 49
-20 58 -20 11 0 21 -15 29 -44 15 -54 19 -271 5 -271 -5 0 -16 -4 -22 -8 -7
-4 -44 -8 -83 -8 -83 0 -146 28 -169 76 -8 17 -19 33 -25 37 -42 29 -266 61
-366 53 -155 -13 -177 -19 -285 -84 -27 -17 -71 -43 -97 -57 -27 -15 -48 -30
-48 -34 0 -4 -19 -20 -42 -35 -24 -16 -63 -45 -88 -66 -55 -45 -101 -69 -134
-69 -48 0 -43 56 20 235 8 23 14 56 14 74 0 33 5 57 40 181 10 36 26 119 35
185 16 120 32 215 61 375 9 47 22 121 30 164 8 43 17 83 20 88 17 27 32 288
23 406 -5 70 -13 186 -18 259 -5 73 -12 137 -16 142 -3 6 -10 61 -16 123 -15
174 -36 280 -61 301 -33 28 -42 7 -23 -49 15 -44 44 -241 45 -302 l0 -24 -30
28 c-29 28 -29 29 -9 36 18 7 21 14 15 46 -6 38 -74 187 -75 165 -1 -7 10 -47
24 -89 14 -43 23 -79 20 -82 -2 -2 -22 15 -44 39 -50 54 -53 36 -6 -31 19 -28
33 -50 30 -50 -2 0 -28 19 -57 43 -55 45 -425 233 -556 283 -40 15 -76 32 -81
38 -35 45 -201 538 -201 599 0 25 20 75 64 162 35 69 72 157 81 195 l17 68 36
-5 c21 -3 53 -9 72 -14 63 -16 365 -10 510 11 113 16 175 19 380 15 135 -2
275 -9 312 -14z m5948 -404 c0 -2 -12 -14 -27 -28 l-28 -24 24 28 c23 25 31
32 31 24z m-80 -80 c0 -2 -12 -14 -27 -28 l-28 -24 24 28 c23 25 31 32 31 24z
m-80 -80 c0 -2 -12 -14 -27 -28 l-28 -24 24 28 c23 25 31 32 31 24z m-80 -80
c0 -2 -12 -14 -27 -28 l-28 -24 24 28 c23 25 31 32 31 24z m-60 -60 c0 -2 -12
-14 -27 -28 l-28 -24 24 28 c23 25 31 32 31 24z m-131 -52 c30 -8 59 -11 64
-8 6 3 7 1 4 -4 -12 -19 40 -24 224 -23 210 2 191 12 254 -135 20 -49 46 -101
56 -114 21 -26 26 -124 10 -177 -5 -16 -17 -56 -26 -89 -54 -184 -190 -432
-247 -451 -28 -8 -108 4 -136 22 -20 13 -23 13 -29 -2 -10 -26 9 -46 75 -79
34 -16 62 -33 62 -36 0 -4 -23 -9 -51 -13 -28 -4 -75 -16 -103 -27 -123 -49
-148 -57 -162 -52 -8 3 -21 0 -29 -7 -12 -10 -25 -10 -61 -1 -119 30 -187 94
-255 236 -78 166 -92 216 -87 320 3 56 11 101 21 119 9 16 14 33 12 36 -3 4 7
18 21 30 18 18 37 24 77 25 28 1 61 4 72 8 11 3 26 6 33 6 8 1 12 23 12 74 0
81 -15 107 -81 140 -28 15 -35 24 -31 39 6 25 48 41 88 35 26 -5 33 -1 48 28
23 41 17 51 -35 59 -41 7 -41 7 -23 28 11 11 28 24 39 29 24 10 109 2 184 -16z
m-1104 -88 c51 -31 47 -50 -26 -119 -33 -32 -64 -58 -68 -58 -5 0 -28 -18 -52
-40 -61 -56 -129 -87 -229 -105 -130 -24 -213 -9 -360 62 -120 58 -137 87
-110 184 9 34 40 79 53 79 3 0 9 -21 12 -47 10 -65 28 -91 82 -114 122 -52
289 -62 398 -24 72 25 148 63 163 82 6 9 12 13 12 8 0 -13 41 28 55 56 9 16
10 30 4 40 -5 8 -9 20 -9 27 0 12 16 6 75 -31z m-869 -19 c-8 -13 -19 -50 -24
-83 -8 -48 -7 -66 5 -89 33 -64 116 -116 263 -166 57 -20 79 -22 175 -17 162
8 254 44 359 141 31 28 46 49 41 57 -5 8 -4 10 4 5 19 -12 80 33 102 75 l20
39 52 -39 c129 -98 277 -266 277 -315 0 -10 5 -26 10 -37 6 -11 19 -52 29 -92
13 -50 22 -71 32 -69 10 3 11 0 3 -8 -9 -9 -8 -23 2 -57 20 -65 19 -66 -26
-59 -29 4 -40 3 -40 -6 0 -14 83 -104 101 -110 19 -6 61 -239 47 -260 -12 -19
-10 -182 3 -195 11 -11 -23 -169 -41 -187 -8 -8 -28 1 -71 36 -9 7 -19 25 -23
41 -3 15 -10 27 -15 27 -5 0 -33 17 -62 37 -52 35 -58 37 -140 37 l-86 1 -17
105 c-10 58 -21 123 -26 145 -12 62 -61 189 -77 202 -9 7 -13 19 -10 27 8 21
-12 31 -28 15 -8 -8 -17 -31 -20 -51 -6 -33 -5 -37 16 -40 23 -3 32 -20 67
-123 16 -46 42 -206 42 -258 l0 -47 -41 -6 c-29 -5 -43 -13 -46 -25 -3 -11
-12 -19 -19 -19 -8 0 -14 -7 -14 -15 0 -10 -10 -15 -29 -15 -17 0 -32 -4 -35
-9 -7 -10 -149 -48 -185 -49 -52 -2 -57 -66 -7 -109 l33 -30 -61 -22 c-33 -13
-91 -32 -127 -43 l-65 -21 -70 33 c-195 93 -306 217 -393 440 -19 47 -51 119
-72 161 -39 78 -85 248 -75 275 3 8 10 53 16 100 6 47 17 102 24 122 30 85 37
113 31 132 -8 26 -23 25 -34 -2 -50 -137 -84 -313 -75 -393 10 -91 51 -212
138 -407 l25 -56 -77 34 c-157 71 -229 112 -319 182 l-51 41 28 103 c26 94 37
130 75 238 27 75 56 169 85 270 66 233 120 322 210 349 25 7 51 18 57 23 13
11 123 57 136 58 4 0 1 -10 -7 -22z m-5850 -109 c-9 -22 -15 -27 -15 -16 -1
21 18 61 25 54 3 -3 -2 -20 -10 -38z m7524 -59 c0 -11 -7 -20 -15 -20 -15 0
-21 21 -8 33 12 13 23 7 23 -13z m80 -65 c0 -28 -5 -37 -31 -50 -16 -9 -38
-15 -47 -13 -9 1 -24 -1 -32 -6 -8 -5 -12 -6 -8 -1 4 4 3 14 -3 21 -15 19 -3
32 24 27 17 -3 32 4 53 26 37 40 44 39 44 -4z m-7370 -38 c0 -2 -15 -16 -32
-33 l-33 -29 29 33 c28 30 36 37 36 29z m3501 -70 c-6 -8 -7 -18 -3 -22 4 -5
2 -5 -5 -1 -6 3 -14 2 -18 -4 -3 -5 -11 -10 -16 -10 -6 0 3 11 18 25 31 27 41
32 24 12z m-3581 -10 c0 -1 -30 -32 -67 -67 l-68 -65 65 68 c60 62 70 72 70
64z m3499 -73 c-18 -20 -60 -61 -92 -92 l-57 -55 22 -26 22 -26 -24 22 -24 23
-56 -53 -55 -52 53 55 c43 46 50 58 40 70 -11 12 -10 12 3 2 13 -9 30 4 104
78 87 88 133 126 64 54z m-2069 -44 c0 -4 10 -12 23 -19 20 -10 19 -11 -8 -4
-16 3 -55 9 -85 13 -57 6 -52 17 10 22 39 4 60 0 60 -12z m1856 -42 l29 -33
-32 29 c-18 17 -33 31 -33 33 0 8 8 1 36 -29z m-3426 19 c0 -2 -19 -21 -42
-42 l-43 -40 40 43 c36 39 45 47 45 39z m-125 -127 l-40 -41 183 -181 c100
-100 181 -182 179 -184 -1 -2 -85 79 -185 179 l-182 181 -58 -54 -57 -55 54
57 c52 55 54 58 38 76 -9 10 -17 22 -17 27 0 4 9 -3 20 -15 l21 -24 37 37 c20
20 39 37 41 37 3 0 -13 -18 -34 -40z m3696 -37 l24 -28 -30 25 c-16 14 -32 26
-34 28 -2 1 0 2 6 2 5 0 20 -12 34 -27z m-411 -248 c-107 -107 -197 -195 -200
-195 -4 0 343 354 370 377 51 42 2 -10 -170 -182z m493 167 c19 -20 23 -29 13
-29 -8 0 -13 4 -10 9 3 4 -1 11 -10 14 -8 3 -17 12 -20 20 -8 20 -3 18 27 -14z
m3628 -39 c13 -16 12 -17 -3 -4 -10 7 -18 15 -18 17 0 8 8 3 21 -13z m-3547
-42 c14 -15 15 -21 4 -27 -7 -4 -10 -3 -5 1 4 5 0 17 -10 27 -9 10 -14 18 -11
18 3 0 13 -9 22 -19z m3636 -46 c35 -36 62 -65 59 -65 -2 0 -34 29 -69 65 -35
36 -62 65 -59 65 2 0 34 -29 69 -65z m-17 -54 c34 -21 73 -42 87 -46 23 -7 24
-7 11 11 -8 10 12 -7 45 -38 99 -95 116 -108 158 -120 23 -6 43 -13 45 -15 9
-6 -50 -71 -69 -76 -24 -6 -25 1 -5 30 8 12 11 24 6 27 -4 3 -24 -20 -42 -52
-19 -31 -42 -58 -51 -60 -15 -3 -15 2 3 54 l20 57 -28 24 c-46 38 -113 58
-113 33 0 -5 11 -10 25 -10 14 0 39 -13 56 -29 29 -28 30 -32 20 -64 -17 -51
-68 -127 -86 -127 -18 0 -18 8 0 40 8 14 14 35 15 47 0 12 5 23 12 25 6 2 -12
18 -40 36 -29 17 -52 36 -52 42 0 5 -7 10 -15 10 -24 0 -18 -13 24 -53 l40
-38 -15 -37 c-8 -20 -19 -45 -24 -54 -14 -24 -2 -47 27 -54 21 -6 23 -11 18
-33 -19 -72 -21 -166 -7 -397 16 -247 16 -252 -4 -313 -12 -34 -17 -64 -12
-67 18 -11 37 19 53 88 16 64 17 86 5 241 -15 208 -16 393 -1 430 6 15 18 27
28 27 20 0 109 -42 134 -62 37 -31 99 -122 118 -172 l20 -55 -25 -58 c-79
-181 -153 -305 -271 -452 -56 -71 -113 -120 -196 -170 l-38 -23 -24 22 c-27
25 -72 121 -91 194 -18 65 -17 180 1 281 10 58 31 113 78 210 81 165 135 347
118 396 -16 46 -14 115 5 156 13 26 32 42 83 66 93 46 94 46 81 62 -10 12 -19
10 -52 -11 -22 -14 -58 -32 -79 -39 l-38 -14 -6 47 c-9 70 -12 85 -20 105 -10
24 -2 22 68 -22z m-2326 -37 c-3 -3 -12 -4 -19 -1 -8 3 -5 6 6 6 11 1 17 -2
13 -5z m88 -44 c3 -6 -3 -10 -14 -10 -11 0 -23 -4 -26 -10 -3 -5 2 -10 11 -10
10 0 15 -3 11 -6 -3 -3 -15 -3 -27 1 -22 7 -22 7 6 27 l29 20 -27 -6 c-17 -4
-28 -2 -28 4 0 6 5 8 10 5 6 -3 10 -1 10 5 0 12 34 -3 45 -20z m-185 10 c-13
-8 -12 -10 3 -10 9 0 17 -4 17 -10 0 -5 -4 -10 -9 -10 -6 0 -13 5 -16 10 -3 6
-16 10 -28 11 -20 1 -20 2 3 9 35 11 48 11 30 0z m-80 -20 c-8 -5 -19 -10 -25
-10 -5 0 -3 5 5 10 8 5 20 10 25 10 6 0 3 -5 -5 -10z m60 -14 l25 -14 -27 1
c-14 1 -24 5 -21 10 7 12 -12 8 -25 -5 -8 -8 -12 -9 -12 -1 0 10 15 21 30 22
3 0 16 -6 30 -13z m3333 -3 c41 -8 33 -20 -28 -39 l-55 -18 -25 24 c-32 30
-31 38 3 43 26 4 42 3 105 -10z m-3067 -6 c4 -3 -6 -5 -20 -3 -14 1 -29 5 -32
9 -3 3 6 4 20 3 15 -2 29 -6 32 -9z m2970 -84 c78 -76 81 -80 93 -143 32 -171
75 -285 140 -370 15 -19 32 -46 39 -60 15 -30 26 -48 73 -120 84 -130 124
-239 144 -392 6 -48 18 -61 28 -34 13 33 -22 213 -53 276 -10 19 -26 53 -36
75 -10 22 -24 47 -30 55 -6 8 -25 40 -42 70 l-30 55 19 87 c38 176 80 244 166
267 91 25 206 0 234 -51 9 -15 12 -56 11 -121 -2 -115 -38 -278 -106 -479 -24
-73 -48 -148 -51 -166 -17 -86 -135 -282 -169 -282 -31 0 -126 64 -174 118
-112 127 -189 258 -210 358 -17 77 -32 211 -33 289 -1 93 -15 146 -57 228 -32
61 -37 67 -66 67 -42 0 -87 46 -95 96 -6 35 -22 52 -78 80 -11 5 -73 -48 -73
-62 0 -2 13 -4 30 -4 34 0 80 -19 80 -33 0 -17 -32 -47 -49 -47 -24 1 -57 30
-80 73 -12 21 -17 36 -11 32 6 -4 10 7 10 26 0 25 10 43 37 71 20 21 43 38 50
38 6 0 16 7 20 15 9 16 134 64 168 65 12 0 54 -32 101 -77z m204 67 c8 -5 12
-10 10 -12 -3 -2 -27 -22 -55 -44 -51 -41 -57 -43 -87 -30 -31 14 -19 30 45
62 75 37 69 36 87 24z m-3105 -30 l29 -30 -25 0 c-17 0 -20 3 -10 9 10 7 10
10 1 16 -7 4 -16 2 -20 -5 -5 -8 -8 -3 -7 13 1 15 2 27 3 27 0 0 13 -13 29
-30z m3242 24 c-3 -3 -12 -4 -19 -1 -8 3 -5 6 6 6 11 1 17 -2 13 -5z m-8157
-101 l85 -88 -86 80 c-74 69 -98 95 -86 95 1 0 41 -39 87 -87z m8075 66 c11
-16 1 -19 -13 -3 -7 8 -8 14 -3 14 5 0 13 -5 16 -11z m-3384 -46 c13 -16 12
-17 -3 -4 -10 7 -18 15 -18 17 0 8 8 3 21 -13z m96 11 c-3 -3 -12 -4 -19 -1
-8 3 -5 6 6 6 11 1 17 -2 13 -5z m-121 -51 c-4 -4 -11 -1 -16 7 -16 25 -11 35
7 17 9 -9 13 -20 9 -24z m354 21 c16 -10 18 -13 5 -8 -11 4 -30 8 -42 8 -13 1
-23 4 -23 9 0 12 33 7 60 -9z m-323 -34 c-10 -26 -9 -32 8 -45 20 -16 20 -16
-1 -6 -29 14 -35 35 -18 60 21 29 24 26 11 -9z m-210 -2 c-3 -8 -6 -5 -6 6 -1
11 2 17 5 13 3 -3 4 -12 1 -19z m313 -3 c0 -8 -4 -15 -10 -15 -5 0 -7 7 -4 15
4 8 8 15 10 15 2 0 4 -7 4 -15z m210 5 c-8 -5 -19 -10 -25 -10 -5 0 -3 5 5 10
8 5 20 10 25 10 6 0 3 -5 -5 -10z m50 6 c0 -2 -7 -7 -16 -10 -8 -3 -12 -2 -9
4 6 10 25 14 25 6z m2329 -27 c13 -17 17 -28 10 -27 -9 2 -13 -7 -13 -25 1
-20 -2 -25 -11 -17 -6 5 -16 6 -20 2 -5 -4 -5 -1 -1 6 4 7 12 9 18 6 6 -4 8
-1 6 7 -3 8 -11 13 -17 11 -7 -1 -10 2 -6 8 3 6 10 8 15 5 5 -3 11 -1 15 5 3
6 -2 14 -12 18 -10 4 -19 13 -20 20 -5 20 11 13 36 -19z m-2260 -15 l26 -11
-26 1 c-15 0 -34 11 -45 26 -18 24 -18 25 0 10 11 -8 31 -20 45 -26z m-465
-27 c7 -6 6 -7 -4 -4 -8 2 -16 14 -17 28 -1 19 -1 20 4 4 3 -11 10 -24 17 -28z
m400 27 c3 -8 2 -12 -4 -9 -6 3 -10 10 -10 16 0 14 7 11 14 -7z m2923 -16 c-3
-8 -6 -5 -6 6 -1 11 2 17 5 13 3 -3 4 -12 1 -19z m-3162 2 c3 -5 1 -10 -4 -10
-6 0 -11 5 -11 10 0 6 2 10 4 10 3 0 8 -4 11 -10z m3132 -12 c-3 -8 -6 -5 -6
6 -1 11 2 17 5 13 3 -3 4 -12 1 -19z m-2754 -20 c-27 -10 -40 -9 -23 2 12 8
11 10 -5 10 -12 0 -26 -5 -32 -11 -8 -8 -17 -7 -32 3 -21 15 -20 15 10 16 17
0 33 3 36 5 2 3 18 0 34 -6 25 -10 27 -13 12 -19z m2357 2 c0 -6 -9 -5 -20 2
-11 7 -20 16 -20 21 0 4 9 3 20 -3 11 -6 20 -15 20 -20z m-7385 -62 l80 -83
-81 75 c-70 64 -93 90 -81 90 1 0 38 -37 82 -82z m4569 74 c3 -5 -1 -9 -9 -9
-8 0 -12 4 -9 9 3 4 7 8 9 8 2 0 6 -4 9 -8z m3773 -7 c19 -8 44 -15 53 -15 27
0 81 -74 87 -118 5 -44 -17 -124 -36 -130 -11 -4 -13 7 -7 60 8 80 -7 103 -89
144 -50 24 -64 26 -134 22 -51 -3 -89 -11 -105 -22 -30 -19 -34 -11 -9 16 9
10 25 18 35 18 11 0 28 5 39 11 18 9 84 25 117 28 7 1 29 -6 49 -14z m-3260
-11 c-3 -3 -12 -4 -19 -1 -8 3 -5 6 6 6 11 1 17 -2 13 -5z m-707 -19 c0 -8 -4
-15 -10 -15 -5 0 -10 7 -10 15 0 8 5 15 10 15 6 0 10 -7 10 -15z m342 7 c-6
-2 -9 -8 -6 -14 5 -8 -29 5 -43 17 -2 1 12 2 30 2 17 0 26 -2 19 -5z m58 -2
c-10 -6 -11 -10 -2 -10 6 0 12 -5 12 -10 0 -7 -7 -7 -21 1 -17 9 -19 13 -8 20
8 5 19 9 24 9 6 0 3 -5 -5 -10z m3835 -10 c3 -5 1 -10 -4 -10 -6 0 -11 5 -11
10 0 6 2 10 4 10 3 0 8 -4 11 -10z m-3986 -16 c7 5 8 1 4 -10 -4 -12 -3 -15 5
-10 7 4 22 0 34 -10 20 -14 20 -16 3 -9 -11 4 -28 8 -38 10 -27 6 -37 15 -37
33 0 14 2 14 9 3 5 -7 14 -11 20 -7z m141 -15 l25 -20 -32 16 c-18 8 -33 18
-33 20 0 10 16 4 40 -16z m-440 -36 c-11 -17 -11 -17 -6 0 3 10 7 26 7 35 1
15 2 15 6 0 2 -10 -1 -25 -7 -35z m870 37 c0 -5 -2 -10 -4 -10 -3 0 -8 5 -11
10 -3 6 -1 10 4 10 6 0 11 -4 11 -10z m1264 -1 c22 -6 51 -19 65 -28 14 -10
39 -26 54 -35 16 -10 27 -20 24 -22 -2 -3 -29 -9 -58 -14 -30 -4 -63 -12 -74
-16 -20 -7 -20 -7 -1 14 28 32 15 69 -30 81 -38 11 -90 5 -111 -12 -18 -13
-16 -77 2 -97 13 -15 11 -16 -28 -18 -57 -2 -84 5 -91 24 -9 25 12 53 47 62
21 6 32 15 31 25 -1 12 12 21 45 31 57 18 76 19 125 5z m581 -7 c-3 -3 -11 0
-18 7 -9 10 -8 11 6 5 10 -3 15 -9 12 -12z m985 14 c0 -2 -8 -10 -17 -17 -16
-13 -17 -12 -4 4 13 16 21 21 21 13z m-925 -26 c3 -6 -1 -7 -9 -4 -18 7 -21
14 -7 14 6 0 13 -4 16 -10z m-1845 -55 c0 -5 -9 1 -20 15 -11 14 -20 30 -20
35 0 6 9 -1 20 -15 11 -14 20 -29 20 -35z m-883 -67 c-2 -24 -4 -7 -4 37 0 44
2 63 4 43 2 -21 2 -57 0 -80z m490 96 c-3 -3 -12 -4 -19 -1 -8 3 -5 6 6 6 11
1 17 -2 13 -5z m76 -15 c-4 -13 -9 -17 -15 -11 -11 11 -3 32 12 32 4 0 6 -9 3
-21z m287 -23 c0 -6 -7 -2 -15 8 -8 11 -15 25 -15 30 0 6 7 2 15 -8 8 -11 15
-25 15 -30z m1214 31 c16 -11 17 -17 7 -36 -16 -29 -59 -45 -77 -30 -20 16
-19 73 1 66 8 -4 17 -2 20 3 9 14 28 12 49 -3z m971 -8 c0 -17 111 -129 127
-129 6 0 8 -3 5 -6 -7 -7 42 -54 56 -54 4 0 7 -5 7 -12 0 -6 8 -21 17 -32 10
-12 -1 -4 -23 17 -27 25 -43 34 -50 27 -7 -7 -17 -3 -30 12 l-19 23 21 -18
c11 -9 24 -14 27 -10 10 10 -64 75 -79 69 -14 -5 -47 27 -38 37 4 4 0 17 -8
29 -16 24 -53 34 -63 17 -4 -5 -14 -9 -23 -9 -12 0 -9 4 8 13 14 7 25 20 24
28 -1 10 7 15 20 14 12 -1 21 -8 21 -16z m-3058 -21 c-3 -8 -6 -5 -6 6 -1 11
2 17 5 13 3 -3 4 -12 1 -19z m3000 16 c-3 -3 -12 -4 -19 -1 -8 3 -5 6 6 6 11
1 17 -2 13 -5z m-196 -21 c13 -16 12 -17 -3 -4 -10 7 -18 15 -18 17 0 8 8 3
21 -13z m1516 -5 c-3 -8 -6 -5 -6 6 -1 11 2 17 5 13 3 -3 4 -12 1 -19z m-4350
-35 c-3 -10 -5 -2 -5 17 0 19 2 27 5 18 2 -10 2 -26 0 -35z m502 13 c-3 -3
-11 5 -18 17 -13 21 -12 21 5 5 10 -10 16 -20 13 -22z m81 24 c0 -5 -4 -10
-10 -10 -5 0 -10 5 -10 10 0 6 5 10 10 10 6 0 10 -4 10 -10z m-141 -4 c-2 -2
-17 -6 -34 -10 -22 -5 -26 -4 -15 4 14 9 59 15 49 6z m31 -16 c0 -5 -2 -10 -4
-10 -3 0 -8 5 -11 10 -3 6 -1 10 4 10 6 0 11 -4 11 -10z m1380 -8 c0 -10 8
-28 17 -42 16 -22 16 -23 -1 -17 -9 4 -25 1 -35 -5 -31 -19 -85 2 -89 33 -3
30 24 47 76 48 24 1 32 -3 32 -17z m-1823 -14 c-3 -8 -6 -5 -6 6 -1 11 2 17 5
13 3 -3 4 -12 1 -19z m559 13 c-14 -5 -16 -10 -8 -15 7 -4 12 -12 12 -18 0 -7
-6 -6 -15 2 -22 19 -18 40 8 39 20 0 20 -1 3 -8z m394 -21 c0 -5 -2 -10 -4
-10 -3 0 -8 5 -11 10 -3 6 -1 10 4 10 6 0 11 -4 11 -10z m1356 -25 c20 -14 40
-22 45 -19 5 3 -1 -16 -13 -43 -27 -58 -27 -57 -32 -52 -2 2 4 22 15 43 10 22
16 42 13 45 -4 3 -8 2 -11 -4 -8 -23 -22 -39 -29 -33 -3 4 1 15 11 24 15 16
15 18 1 26 -9 5 -21 6 -26 3 -5 -3 -7 0 -4 9 4 11 -3 16 -28 19 -28 3 -29 4
-6 5 15 1 44 -9 64 -23z m-636 0 c0 -8 10 -20 23 -27 20 -11 17 -13 -38 -23
-63 -12 -88 -6 -99 21 -8 21 -5 25 36 34 54 13 78 11 78 -5z m487 9 c-3 -3
-12 -4 -19 -1 -8 3 -5 6 6 6 11 1 17 -2 13 -5z m-1594 -86 c14 -16 22 -28 17
-28 -5 0 -18 12 -30 27 -16 21 -23 24 -30 14 -6 -10 -8 -7 -7 10 0 13 -3 33
-7 44 -5 11 1 7 12 -10 10 -16 31 -42 45 -57z m24 60 c-3 -8 -6 -5 -6 6 -1 11
2 17 5 13 3 -3 4 -12 1 -19z m383 12 c0 -5 -4 -10 -10 -10 -5 0 -10 5 -10 10
0 6 5 10 10 10 6 0 10 -4 10 -10z m1145 0 c-3 -5 -12 -10 -18 -10 -7 0 -6 4 3
10 19 12 23 12 15 0z m85 0 c8 -5 11 -10 5 -10 -5 0 -17 5 -25 10 -8 5 -10 10
-5 10 6 0 17 -5 25 -10z m-6354 -31 c16 -16 22 -28 14 -24 -13 5 -56 55 -47
55 2 0 16 -14 33 -31z m6221 25 c-3 -3 -12 -4 -19 -1 -8 3 -5 6 6 6 11 1 17
-2 13 -5z m-2087 -24 c0 -5 -4 -10 -10 -10 -5 0 -10 5 -10 10 0 6 5 10 10 10
6 0 10 -4 10 -10z m640 6 c0 -2 -7 -7 -16 -10 -8 -3 -12 -2 -9 4 6 10 25 14
25 6z m395 -26 c10 -11 14 -20 9 -20 -5 0 -15 9 -22 20 -7 11 -11 20 -9 20 2
0 12 -9 22 -20z m920 10 c-27 -12 -43 -12 -25 0 8 5 22 9 30 9 10 0 8 -3 -5
-9z m-1289 -13 c18 7 18 6 1 -12 -16 -15 -20 -16 -28 -4 -5 8 -9 19 -9 24 0 6
4 4 8 -3 5 -8 16 -10 28 -5z m1224 5 c0 -4 -15 -14 -32 -22 -18 -7 -36 -15
-40 -18 -5 -2 -8 0 -8 5 0 4 17 16 38 25 45 20 42 20 42 10z m1067 -14 c-3 -8
-6 -5 -6 6 -1 11 2 17 5 13 3 -3 4 -12 1 -19z m-994 -5 c-7 -2 -19 -2 -25 0
-7 3 -2 5 12 5 14 0 19 -2 13 -5z m339 -39 c-6 -12 -9 -7 -9 16 0 23 3 28 9
16 5 -9 5 -23 0 -32z m-1614 19 c-2 -12 3 -17 16 -16 12 1 15 -2 8 -9 -15 -15
-53 12 -38 28 15 18 17 17 14 -3z m3699 -5 c-3 -8 -6 -5 -6 6 -1 11 2 17 5 13
3 -3 4 -12 1 -19z m-8441 -20 l29 -33 -32 29 c-31 28 -38 36 -30 36 2 0 16
-15 33 -32z m4048 16 c3 -8 2 -12 -4 -9 -6 3 -10 10 -10 16 0 14 7 11 14 -7z
m51 7 c3 -5 1 -12 -5 -16 -5 -3 -10 1 -10 9 0 18 6 21 15 7z m510 -1 c-3 -5
-11 -10 -16 -10 -6 0 -7 5 -4 10 3 6 11 10 16 10 6 0 7 -4 4 -10z m1363 3
c-10 -2 -26 -2 -35 0 -10 3 -2 5 17 5 19 0 27 -2 18 -5z m52 -3 c0 -5 -7 -7
-15 -4 -8 4 -15 8 -15 10 0 2 7 4 15 4 8 0 15 -4 15 -10z m-177 -7 c-7 -2 -19
-2 -25 0 -7 3 -2 5 12 5 14 0 19 -2 13 -5z m-1776 -65 c-2 -13 -4 -3 -4 22 0
25 2 35 4 23 2 -13 2 -33 0 -45z m2166 55 c-7 -2 -19 -2 -25 0 -7 3 -2 5 12 5
14 0 19 -2 13 -5z m90 0 c-7 -2 -21 -2 -30 0 -10 3 -4 5 12 5 17 0 24 -2 18
-5z m1337 -14 c0 -14 -17 -10 -23 5 -4 10 -1 13 9 9 7 -3 14 -9 14 -14z
m-2974 -16 c-7 -7 -26 7 -26 19 0 6 6 6 15 -2 9 -7 13 -15 11 -17z m1074 17
c0 -5 -8 -10 -17 -10 -15 0 -16 2 -3 10 19 12 20 12 20 0z m475 -10 c4 -6 16
-8 28 -4 17 5 19 3 11 -5 -12 -13 -64 -5 -64 10 0 12 17 11 25 -1z m82 4 c-3
-3 -12 -4 -19 -1 -8 3 -5 6 6 6 11 1 17 -2 13 -5z m1840 -26 c-3 -7 -5 -2 -5
12 0 14 2 19 5 13 2 -7 2 -19 0 -25z m290 0 c-3 -7 -5 -2 -5 12 0 14 2 19 5
13 2 -7 2 -19 0 -25z m-3656 5 c13 -16 12 -17 -3 -4 -10 7 -18 15 -18 17 0 8
8 3 21 -13z m399 7 c-37 -25 -50 -31 -50 -20 0 6 10 15 23 20 30 12 45 12 27
0z m485 -6 c-63 -24 -84 -26 -40 -4 22 11 49 19 60 19 12 0 3 -6 -20 -15z
m1649 0 c3 -8 2 -12 -4 -9 -6 3 -10 10 -10 16 0 14 7 11 14 -7z m-1108 -12
c-10 -2 -22 0 -28 6 -6 6 0 7 19 4 21 -5 23 -7 9 -10z m-1495 -9 c13 -16 12
-17 -3 -4 -10 7 -18 15 -18 17 0 8 8 3 21 -13z m976 5 c0 -8 -14 -13 -31 -14
l-31 -1 30 13 c17 7 30 13 31 14 0 0 1 -6 1 -12z m-507 -9 c-12 -8 -9 -9 13
-5 15 4 27 2 27 -2 0 -5 -12 -8 -27 -7 -45 3 -49 5 -33 15 20 13 39 12 20 -1z
m557 5 c-3 -3 -12 -4 -19 -1 -8 3 -5 6 6 6 11 1 17 -2 13 -5z m613 -2 c0 -4
-4 -12 -10 -18 -5 -5 -24 -50 -41 -99 -27 -76 -33 -109 -37 -207 -5 -131 3
-174 50 -283 30 -70 58 -109 90 -126 24 -13 92 16 113 47 9 14 37 38 63 54 26
16 58 43 70 59 28 38 38 38 74 4 39 -37 155 -107 313 -188 l130 -67 -108 4
c-59 3 -105 3 -102 0 2 -3 -9 -17 -26 -32 -33 -28 -33 -28 -146 0 -43 11 -85
-12 -131 -71 -20 -26 -48 -53 -61 -59 -14 -6 -76 -16 -138 -21 -125 -10 -200
-25 -223 -45 -13 -11 -19 -5 -45 38 -72 120 -251 329 -340 396 -56 42 -51 62
62 249 24 40 56 102 71 137 19 45 40 75 67 96 45 35 178 100 206 100 11 0 19
4 19 8 0 4 15 13 33 19 43 14 47 14 47 5z m-2313 -54 c-2 -13 -4 -5 -4 17 -1
22 1 32 4 23 2 -10 2 -28 0 -40z m1226 45 c-7 -2 -19 -2 -25 0 -7 3 -2 5 12 5
14 0 19 -2 13 -5z m2054 -40 c-3 -10 -5 -2 -5 17 0 19 2 27 5 18 2 -10 2 -26
0 -35z m-2454 17 c4 0 5 5 2 10 -3 6 -2 10 4 10 17 0 22 -18 6 -24 -19 -7 -45
3 -45 17 0 7 4 7 12 -1 7 -7 16 -12 21 -12z m70 13 c-7 -2 -19 -2 -25 0 -7 3
-2 5 12 5 14 0 19 -2 13 -5z m50 0 c-7 -2 -19 -2 -25 0 -7 3 -2 5 12 5 14 0
19 -2 13 -5z m1123 -2 c-4 -5 -1 -11 6 -13 6 -2 -11 -15 -38 -27 -27 -13 -53
-28 -57 -35 -6 -7 -7 -6 -4 4 2 8 14 21 28 27 13 7 19 13 13 13 -5 0 -19 7
-30 16 -21 17 -14 16 29 -6 21 -10 30 -11 39 -2 9 9 7 12 -7 13 -19 0 -19 1 0
9 27 11 27 11 21 1z m54 5 c0 -2 -7 -7 -16 -10 -8 -3 -12 -2 -9 4 6 10 25 14
25 6z m881 -13 c13 -16 12 -17 -3 -4 -10 7 -18 15 -18 17 0 8 8 3 21 -13z
m-1774 1 c-3 -3 -12 -4 -19 -1 -8 3 -5 6 6 6 11 1 17 -2 13 -5z m2870 -26 c-3
-7 -5 -2 -5 12 0 14 2 19 5 13 2 -7 2 -19 0 -25z m-3361 7 c10 -8 15 -14 9
-14 -5 0 -19 6 -29 14 -11 8 -15 15 -10 15 6 0 19 -7 30 -15z m179 5 c3 -5 -1
-10 -9 -10 -9 0 -16 5 -16 10 0 6 4 10 9 10 6 0 13 -4 16 -10z m265 6 c0 -11
-19 -15 -25 -6 -3 5 1 10 9 10 9 0 16 -2 16 -4z m295 -6 c-28 -12 -47 -12 -40
0 3 6 18 10 33 9 24 0 25 -1 7 -9z m-1448 -97 c-2 -21 -4 -6 -4 32 0 39 2 55
4 38 2 -18 2 -50 0 -70z m2933 67 c0 -10 5 -22 10 -25 10 -6 80 -111 80 -120
0 -10 -109 44 -127 62 -14 14 -17 25 -11 39 4 10 12 32 18 47 11 30 30 28 30
-3z m-1743 14 c-3 -3 -12 -4 -19 -1 -8 3 -5 6 6 6 11 1 17 -2 13 -5z m180 -5
c-24 -14 -82 -31 -73 -21 8 8 66 30 81 31 6 0 2 -4 -8 -10z m-608 -46 c-16
-19 -21 -16 -14 7 4 11 2 20 -4 20 -6 0 -11 5 -11 12 0 6 9 3 20 -7 15 -14 17
-21 9 -32z m106 37 c3 -5 2 -10 -4 -10 -5 0 -13 5 -16 10 -3 6 -2 10 4 10 5 0
13 -4 16 -10z m260 0 c-3 -5 -10 -10 -16 -10 -5 0 -9 5 -9 10 0 6 7 10 16 10
8 0 12 -4 9 -10z m-435 -4 c0 -2 -7 -7 -16 -10 -8 -3 -12 -2 -9 4 6 10 25 14
25 6z m266 -26 c0 -11 -6 -20 -14 -20 -7 0 -10 5 -7 10 3 6 2 10 -4 10 -5 0
-11 -5 -13 -12 -3 -8 -11 -7 -27 4 -24 17 -18 22 32 25 27 2 33 -1 33 -17z
m79 0 c-11 -5 -27 -9 -35 -9 -13 -1 -13 0 0 9 8 5 24 9 35 9 l20 0 -20 -9z
m880 -10 c-10 -11 -21 -17 -24 -14 -3 4 0 9 7 11 6 3 10 9 6 14 -3 5 3 9 12 9
16 0 16 -2 -1 -20z m-1131 -14 c-10 -8 -21 -12 -24 -10 -5 6 21 24 34 24 6 0
1 -6 -10 -14z m56 -16 c8 -5 11 -10 5 -10 -5 0 -17 5 -25 10 -8 5 -10 10 -5
10 6 0 17 -5 25 -10z m315 0 c18 -8 18 -9 2 -9 -10 -1 -15 -5 -12 -11 3 -6 -1
-7 -9 -4 -9 3 -16 1 -16 -5 0 -6 -6 -11 -12 -11 -7 1 -2 10 12 21 l24 21 -39
-7 c-30 -5 -36 -4 -25 4 18 13 47 13 75 1z m1895 -12 c0 -6 -6 -5 -15 2 -8 7
-15 14 -15 16 0 2 7 1 15 -2 8 -4 15 -11 15 -16z m-2150 -23 c15 -16 19 -25
10 -25 -7 0 -11 -2 -8 -5 3 -3 -15 -26 -39 -51 -36 -36 -43 -48 -33 -59 10
-12 7 -17 -15 -25 -37 -14 -52 -13 -59 6 -13 34 -4 54 53 113 32 33 56 63 53
66 -3 3 -1 5 5 5 5 0 20 -11 33 -25z m300 10 c-33 -19 -49 -19 -24 0 10 8 26
14 34 14 9 0 4 -6 -10 -14z m2040 -20 c0 -5 -5 -3 -10 5 -5 8 -10 20 -10 25 0
6 5 3 10 -5 5 -8 10 -19 10 -25z m-2210 15 c13 -9 13 -10 0 -9 -8 0 -24 4 -35
9 l-20 9 20 0 c11 0 27 -4 35 -9z m-1050 -37 c0 -43 -5 -41 -13 5 -4 18 -2 32
3 32 6 0 10 -16 10 -37z m2890 27 c0 -5 27 -23 60 -40 33 -17 60 -28 60 -24 0
3 14 -6 31 -20 17 -14 35 -26 41 -26 6 0 29 -18 52 -39 94 -90 184 -165 234
-193 30 -17 56 -38 60 -47 14 -40 163 -198 200 -213 25 -10 21 -12 -48 -25
-41 -8 -140 -14 -220 -15 l-145 0 -175 87 c-173 87 -319 175 -355 215 -21 23
-13 45 32 95 28 30 153 231 153 246 0 5 5 9 10 9 6 0 10 -4 10 -10z m-1753
-20 c21 -11 33 -20 27 -20 -13 0 -74 30 -74 36 0 7 10 4 47 -16z m-1120 -12
c-3 -8 -6 -5 -6 6 -1 11 2 17 5 13 3 -3 4 -12 1 -19z m1208 12 c3 -5 -1 -10
-9 -10 -9 0 -16 5 -16 10 0 6 4 10 9 10 6 0 13 -4 16 -10z m2052 -12 c-3 -8
-6 -5 -6 6 -1 11 2 17 5 13 3 -3 4 -12 1 -19z m-2237 -18 c13 -8 12 -10 -4
-10 -12 0 -16 -5 -12 -15 3 -8 1 -15 -3 -15 -14 0 -22 30 -8 31 7 1 1 5 -13 9
l-25 8 25 1 c14 0 32 -4 40 -9z m165 0 c3 -5 2 -10 -4 -10 -5 0 -13 5 -16 10
-3 6 -2 10 4 10 5 0 13 -4 16 -10z m3222 -12 c-3 -8 -6 -5 -6 6 -1 11 2 17 5
13 3 -3 4 -12 1 -19z m-3467 5 c-8 -3 -23 -12 -33 -21 -9 -8 -20 -12 -24 -9
-3 4 -1 7 6 7 7 0 9 5 5 12 -4 6 -3 8 4 4 6 -3 13 -2 17 4 3 5 14 10 23 9 14
0 14 -2 2 -6z m118 -15 c-6 -16 -38 -23 -38 -9 0 6 7 7 17 4 11 -4 14 -3 9 5
-4 7 -2 12 4 12 7 0 10 -6 8 -12z m-1067 -96 l-9 -37 -1 45 c-1 25 -4 56 -7
70 -4 19 -1 17 10 -8 11 -24 13 -43 7 -70z m16 76 c-3 -8 -6 -5 -6 6 -1 11 2
17 5 13 3 -3 4 -12 1 -19z m982 -14 c6 -15 9 -29 6 -32 -3 -3 -5 -1 -5 5 0 6
-10 8 -22 6 -13 -2 -29 1 -37 6 -12 8 -12 12 -2 25 20 24 46 19 60 -10z m836
16 c3 -5 2 -10 -4 -10 -5 0 -13 5 -16 10 -3 6 -2 10 4 10 5 0 13 -4 16 -10z
m-937 -19 c10 -6 8 -10 -9 -14 -13 -4 -25 -4 -28 -2 -2 3 1 5 8 5 7 0 9 5 6
10 -8 12 5 13 23 1z m-871 -33 c-3 -7 -5 -2 -5 12 0 14 2 19 5 13 2 -7 2 -19
0 -25z m4182 -3 c29 -14 40 -15 71 -6 72 21 149 5 164 -34 8 -23 7 -95 -2 -73
-4 9 -24 30 -45 46 -34 27 -41 29 -70 20 -65 -21 -105 -21 -142 1 -63 37 -86
30 -174 -55 -76 -72 -80 -74 -76 -45 6 43 20 66 73 117 69 65 118 73 201 29z
m-2902 -17 c-3 -7 -5 -2 -5 12 0 14 2 19 5 13 2 -7 2 -19 0 -25z m-29 -9 c-3
-8 -7 -3 -11 10 -4 17 -3 21 5 13 5 -5 8 -16 6 -23z m1990 6 c-3 -3 -9 2 -12
12 -6 14 -5 15 5 6 7 -7 10 -15 7 -18z m-2541 9 c-3 -3 -12 -4 -19 -1 -8 3 -5
6 6 6 11 1 17 -2 13 -5z m2501 -29 c-3 -3 -9 2 -12 12 -6 14 -5 15 5 6 7 -7
10 -15 7 -18z m-2494 -4 c3 -4 -8 -19 -26 -32 -31 -24 -52 -42 -98 -83 -34
-30 -60 -39 -60 -21 0 17 107 124 135 136 27 11 43 11 49 0z m-689 -52 c17 -6
17 -8 3 -8 -10 -1 -18 -5 -18 -11 0 -5 -8 -6 -17 -3 -15 6 -15 7 3 14 15 6 15
8 3 8 -12 1 -15 8 -11 29 6 27 6 27 12 3 3 -13 14 -28 25 -32z m1725 31 c-6
-11 -12 -20 -14 -20 -2 0 -2 9 1 20 3 11 9 20 15 20 5 0 4 -9 -2 -20z m1500 5
c19 -22 8 -25 -12 -3 -10 10 -14 18 -9 18 5 0 14 -7 21 -15z m-1986 -45 l7
-25 -15 25 c-9 14 -15 32 -15 40 0 13 1 13 8 0 5 -8 12 -26 15 -40z m464 -5
c-3 -3 -9 2 -12 12 -6 14 -5 15 5 6 7 -7 10 -15 7 -18z m-14 -11 c3 -8 2 -12
-4 -9 -6 3 -10 10 -10 16 0 14 7 11 14 -7z m-1654 -10 c0 -2 -7 -4 -15 -4 -8
0 -15 4 -15 10 0 5 7 7 15 4 8 -4 15 -8 15 -10z m707 -6 c-3 -8 -6 -5 -6 6 -1
11 2 17 5 13 3 -3 4 -12 1 -19z m522 -48 c0 -10 -3 -8 -9 5 -12 27 -12 43 0
25 5 -8 9 -22 9 -30z m-1149 10 c8 -5 11 -10 5 -10 -5 0 -17 5 -25 10 -8 5
-10 10 -5 10 6 0 17 -5 25 -10z m367 -12 c-3 -8 -6 -5 -6 6 -1 11 2 17 5 13 3
-3 4 -12 1 -19z m-400 -35 c76 -53 80 -57 176 -144 37 -34 67 -66 67 -71 0 -9
-83 42 -88 54 -2 3 -27 19 -55 33 -52 28 -131 96 -168 148 -29 39 -10 34 68
-20z m1583 37 c0 -5 -5 -10 -11 -10 -5 0 -7 5 -4 10 3 6 8 10 11 10 2 0 4 -4
4 -10z m-1760 -6 c-38 -8 -90 -9 -90 -2 0 4 24 7 53 7 28 -1 45 -3 37 -5z
m237 -9 c0 -8 -4 -12 -9 -9 -5 3 -6 10 -3 15 9 13 12 11 12 -6z m-526 -13
c-13 -2 -27 0 -32 5 -6 6 3 7 23 4 28 -4 29 -6 9 -9z m340 1 c13 -16 12 -17
-3 -4 -10 7 -18 15 -18 17 0 8 8 3 21 -13z m506 11 c-3 -3 -12 -4 -19 -1 -8 3
-5 6 6 6 11 1 17 -2 13 -5z m-724 -11 c-7 -2 -21 -2 -30 0 -10 3 -4 5 12 5 17
0 24 -2 18 -5z m447 -3 c0 -5 -2 -10 -4 -10 -3 0 -8 5 -11 10 -3 6 -1 10 4 10
6 0 11 -4 11 -10z m316 -52 c-6 -15 -17 -28 -26 -28 -9 0 -38 -22 -65 -49 -46
-46 -51 -48 -67 -34 -26 23 -23 31 28 79 52 50 74 64 103 64 13 0 21 7 22 18
0 15 1 14 8 -3 4 -10 3 -32 -3 -47z m1107 37 c-7 -21 -13 -19 -13 6 0 11 4 18
10 14 5 -3 7 -12 3 -20z m-2046 9 c-3 -3 -12 -4 -19 -1 -8 3 -5 6 6 6 11 1 17
-2 13 -5z m-82 -14 c-27 -12 -43 -12 -25 0 8 5 22 9 30 9 10 0 8 -3 -5 -9z
m912 -12 c-3 -8 -6 -5 -6 6 -1 11 2 17 5 13 3 -3 4 -12 1 -19z m1257 7 c3 -8
1 -15 -4 -15 -6 0 -10 7 -10 15 0 8 2 15 4 15 2 0 6 -7 10 -15z m2763 -27 c-3
-7 -5 -2 -5 12 0 14 2 19 5 13 2 -7 2 -19 0 -25z m-4109 2 c3 -13 2 -13 -7 0
-8 12 -13 12 -31 -5 -18 -16 -20 -16 -14 -2 3 10 1 17 -5 17 -6 0 -11 -5 -11
-12 0 -6 -3 -9 -6 -5 -13 12 7 25 38 23 18 -1 33 -8 36 -16z m-913 -10 c-3 -5
-11 -10 -16 -10 -6 0 -7 5 -4 10 3 6 11 10 16 10 6 0 7 -4 4 -10z m2260 -10
c3 -5 1 -10 -4 -10 -6 0 -11 5 -11 10 0 6 2 10 4 10 3 0 8 -4 11 -10z m2523
-6 c104 -45 122 -56 158 -99 21 -26 52 -61 68 -78 16 -18 42 -53 58 -79 16
-26 43 -57 59 -69 23 -16 28 -26 23 -42 -14 -48 -124 -277 -172 -361 -28 -49
-53 -93 -54 -97 -3 -10 -92 -34 -158 -43 -42 -6 -149 3 -499 38 -79 8 -148 13
-155 10 -6 -2 -94 -6 -196 -8 -102 -2 -200 -9 -219 -15 -19 -6 -38 -8 -42 -5
-5 3 -17 1 -27 -5 -18 -10 -36 -13 -192 -31 -102 -12 -178 -31 -250 -61 -44
-19 -124 -29 -135 -17 -11 11 13 115 46 198 52 131 176 311 315 457 l69 71
131 -8 c151 -10 473 -6 554 8 80 13 171 42 191 61 19 18 79 138 79 159 0 9 13
11 48 7 26 -3 81 1 122 9 100 19 135 19 178 0z m-4148 -14 c0 -5 -5 -10 -11
-10 -5 0 -7 5 -4 10 3 6 8 10 11 10 2 0 4 -4 4 -10z m275 -11 c-5 -16 -4 -19
5 -14 9 6 11 4 5 -4 -10 -18 -27 2 -19 22 9 25 17 21 9 -4z m-908 5 c-3 -3
-12 -4 -19 -1 -8 3 -5 6 6 6 11 1 17 -2 13 -5z m-5991 -19 c4 -8 1 -22 -6 -30
-10 -13 -15 -12 -36 3 -28 20 -30 29 -6 35 32 9 43 7 48 -8z m7851 -22 c-3
-10 -5 -4 -5 12 0 17 2 24 5 18 2 -7 2 -21 0 -30z m40 21 c-3 -3 -12 -4 -19
-1 -8 3 -5 6 6 6 11 1 17 -2 13 -5z m3083 -14 c6 -11 8 -20 6 -20 -3 0 -10 9
-16 20 -6 11 -8 20 -6 20 3 0 10 -9 16 -20z m-4289 -7 c13 -16 12 -17 -3 -4
-17 13 -22 21 -14 21 2 0 10 -8 17 -17z m1486 11 c-3 -3 -12 -4 -19 -1 -8 3
-5 6 6 6 11 1 17 -2 13 -5z m160 0 c-3 -3 -12 -4 -19 -1 -8 3 -5 6 6 6 11 1
17 -2 13 -5z m-2442 -34 c-10 -11 -22 -20 -28 -20 -5 0 1 11 14 24 28 29 40
25 14 -4z m2002 24 c-3 -3 -12 -4 -19 -1 -8 3 -5 6 6 6 11 1 17 -2 13 -5z
m-7989 -29 c7 -14 12 -33 12 -41 0 -21 -116 -138 -129 -130 -19 12 -12 31 28
70 42 41 58 84 35 93 -11 4 -12 9 -3 19 18 22 45 16 57 -11z m7132 15 c0 -5
-4 -10 -10 -10 -5 0 -10 5 -10 10 0 6 5 10 10 10 6 0 10 -4 10 -10z m1107 4
c-3 -3 -12 -4 -19 -1 -8 3 -5 6 6 6 11 1 17 -2 13 -5z m164 -15 c8 -16 8 -20
-1 -17 -6 2 -11 8 -11 13 1 6 -29 13 -66 16 l-68 5 67 2 c59 2 69 -1 79 -19z
m79 -25 c0 -3 -6 -1 -14 5 -11 9 -15 9 -20 -1 -3 -7 -3 -2 0 11 5 17 3 21 -6
16 -9 -6 -11 -4 -5 4 5 9 12 7 26 -8 10 -11 19 -23 19 -27z m-510 26 c0 -5 -8
-10 -17 -10 -15 0 -16 2 -3 10 19 12 20 12 20 0z m3135 0 c3 -5 1 -10 -4 -10
-6 0 -11 5 -11 10 0 6 2 10 4 10 3 0 8 -4 11 -10z m-3945 -17 c0 -29 -17 -50
-30 -37 -9 9 -8 17 2 33 16 26 28 27 28 4z m943 10 c-13 -2 -33 -2 -45 0 -13
2 -3 4 22 4 25 0 35 -2 23 -4z m134 1 c-3 -3 -12 -4 -19 -1 -8 3 -5 6 6 6 11
1 17 -2 13 -5z m-1437 -14 c0 -5 -2 -10 -4 -10 -3 0 -8 5 -11 10 -3 6 -1 10 4
10 6 0 11 -4 11 -10z m57 -6 c-3 -3 -12 -4 -19 -1 -8 3 -5 6 6 6 11 1 17 -2
13 -5z m228 -14 c3 -5 1 -10 -4 -10 -6 0 -11 5 -11 10 0 6 2 10 4 10 3 0 8 -4
11 -10z m44 -61 c-16 -9 -15 -11 -23 24 l-7 28 22 -22 c17 -17 19 -23 8 -30z
m-3012 25 c-3 -3 -12 -4 -19 -1 -8 3 -5 6 6 6 11 1 17 -2 13 -5z m43 -4 c0 -5
-4 -10 -9 -10 -6 0 -13 5 -16 10 -3 6 1 10 9 10 9 0 16 -4 16 -10z m73 3 c-7
-2 -21 -2 -30 0 -10 3 -4 5 12 5 17 0 24 -2 18 -5z m2721 1 c24 -9 20 -23 -21
-65 -42 -43 -54 -47 -73 -24 -11 14 -7 22 25 55 41 42 44 44 69 34z m-3118
-171 c-163 -160 -169 -166 -185 -147 -9 11 -26 29 -38 41 l-22 22 78 66 c44
36 83 65 88 65 5 0 42 21 83 46 81 49 126 72 150 73 8 1 -62 -74 -154 -166z
m201 161 c-3 -3 -12 -4 -19 -1 -8 3 -5 6 6 6 11 1 17 -2 13 -5z m286 -1 c-7
-2 -21 -2 -30 0 -10 3 -4 5 12 5 17 0 24 -2 18 -5z m1574 1 c-3 -3 -12 -4 -19
-1 -8 3 -5 6 6 6 11 1 17 -2 13 -5z m-6188 -110 c-18 -34 -21 -49 -12 -62 18
-30 41 -24 84 23 38 41 44 44 58 30 14 -13 9 -21 -49 -80 -36 -35 -68 -64 -72
-65 -4 0 -23 17 -43 38 -40 43 -45 82 -15 127 11 17 20 40 20 53 0 14 8 26 23
31 19 7 22 5 25 -20 2 -16 -7 -50 -19 -75z m4608 90 c-3 -3 -12 -4 -19 -1 -8
3 -5 6 6 6 11 1 17 -2 13 -5z m130 0 c-3 -3 -12 -4 -19 -1 -8 3 -5 6 6 6 11 1
17 -2 13 -5z m1518 -15 c-4 -5 8 -7 27 -4 l33 5 -29 -10 c-17 -5 -32 -7 -35
-4 -9 9 -9 34 0 28 5 -3 7 -10 4 -15z m1078 -10 c12 -7 23 -13 25 -14 2 -2 -5
-26 -15 -55 -17 -50 -17 -52 1 -65 16 -12 21 -10 45 18 27 33 52 56 61 56 3 0
14 -6 25 -14 18 -15 16 -18 -55 -91 l-75 -75 -42 48 c-49 54 -53 80 -23 136
11 20 20 44 20 52 0 18 5 18 33 4z m210 -3 c4 -10 1 -13 -9 -9 -7 3 -14 0 -14
-6 0 -6 -5 -11 -12 -11 -6 0 -3 9 7 20 22 24 21 24 28 6z m-1205 -21 c-3 -3
-9 2 -12 12 -6 14 -5 15 5 6 7 -7 10 -15 7 -18z m926 9 c3 -8 2 -12 -4 -9 -6
3 -10 10 -10 16 0 14 7 11 14 -7z m-881 -21 c-7 -2 -19 -2 -25 0 -7 3 -2 5 12
5 14 0 19 -2 13 -5z m-1598 -13 c3 -5 1 -10 -4 -10 -6 0 -11 5 -11 10 0 6 2
10 4 10 3 0 8 -4 11 -10z m2412 -98 c116 -115 118 -118 103 -137 -7 -8 -18
-15 -24 -15 -6 0 -47 35 -91 79 -44 43 -89 80 -99 82 -10 2 -24 12 -29 21 -9
13 -6 21 14 37 13 11 27 20 31 21 4 0 47 -39 95 -88z m-7330 -17 c54 -52 94
-97 90 -101 -3 -4 -14 -1 -24 7 -11 9 -14 10 -9 2 4 -8 2 -13 -6 -13 -7 0 -39
29 -71 65 -36 39 -72 68 -93 75 -19 6 -34 15 -34 20 0 12 29 40 41 40 5 0 53
-43 106 -95z m6617 86 c4 -5 -3 -7 -14 -4 -23 6 -26 13 -6 13 8 0 17 -4 20 -9z
m-1654 -36 c0 -5 -5 -3 -10 5 -5 8 -10 20 -10 25 0 6 5 3 10 -5 5 -8 10 -19
10 -25z m2690 5 c0 -5 -5 -10 -11 -10 -5 0 -7 5 -4 10 3 6 8 10 11 10 2 0 4
-4 4 -10z m-2646 -46 c3 -8 2 -12 -4 -9 -6 3 -10 10 -10 16 0 14 7 11 14 -7z
m1840 -43 c-2 -3 -12 3 -22 13 -16 17 -16 18 5 5 12 -7 20 -15 17 -18z m-1774
-6 c0 -12 -29 -3 -34 10 -4 13 -2 14 14 5 11 -6 20 -13 20 -15z m2627 3 c-3
-8 -6 -5 -6 6 -1 11 2 17 5 13 3 -3 4 -12 1 -19z m-2697 8 c0 -3 -4 -8 -10
-11 -5 -3 -10 -1 -10 4 0 6 5 11 10 11 6 0 10 -2 10 -4z m2238 -15 c-10 -17
-9 -24 7 -43 20 -23 20 -23 -7 1 -23 20 -25 26 -15 42 7 11 15 19 19 19 5 0 3
-9 -4 -19z m-91 -28 c32 6 40 1 99 -59 35 -35 64 -68 64 -72 0 -24 -16 -14
-73 45 -42 45 -67 63 -79 59 -10 -2 -34 0 -52 5 -31 9 -38 6 -73 -26 -21 -19
-41 -35 -45 -35 -18 0 -5 20 37 59 39 36 48 40 66 30 12 -6 37 -9 56 -6z
m-7334 -5 c20 1 37 -2 37 -6 0 -5 -21 -6 -47 -5 -27 2 -58 4 -70 5 -13 0 -23
5 -23 10 0 7 12 8 33 3 17 -5 49 -8 70 -7z m7116 -9 c13 -11 22 -21 20 -23 -2
-3 -17 7 -32 20 -15 13 -24 24 -20 24 4 -1 19 -10 32 -21z m-1794 -7 c-3 -3
-11 0 -18 7 -9 10 -8 11 6 5 10 -3 15 -9 12 -12z m2432 12 c-3 -3 -12 -4 -19
-1 -8 3 -5 6 6 6 11 1 17 -2 13 -5z m-62 -14 c3 -5 1 -10 -4 -10 -6 0 -11 5
-11 10 0 6 2 10 4 10 3 0 8 -4 11 -10z m-38 -22 c-3 -8 -6 -5 -6 6 -1 11 2 17
5 13 3 -3 4 -12 1 -19z m133 12 c-34 -11 -60 -11 -35 0 11 5 29 8 40 8 16 0
15 -2 -5 -8z m-2445 -10 c-3 -5 -12 -10 -18 -10 -7 0 -6 4 3 10 19 12 23 12
15 0z m2029 -9 c4 -5 -3 -7 -14 -4 -23 6 -26 13 -6 13 8 0 17 -4 20 -9z
m-3059 -19 c-3 -3 -11 0 -18 7 -9 10 -8 11 6 5 10 -3 15 -9 12 -12z m55 -12
c0 -5 -4 -10 -10 -10 -5 0 -10 5 -10 10 0 6 5 10 10 10 6 0 10 -4 10 -10z
m1023 -20 c-3 -12 -8 -19 -11 -16 -5 6 5 36 12 36 2 0 2 -9 -1 -20z m1913 0
c15 0 50 -47 41 -56 -10 -10 -117 28 -117 42 0 14 27 24 48 18 8 -2 20 -4 28
-4z m109 0 c3 -5 1 -10 -4 -10 -6 0 -11 5 -11 10 0 6 2 10 4 10 3 0 8 -4 11
-10z m-3015 -10 c0 -5 -4 -10 -10 -10 -5 0 -10 5 -10 10 0 6 5 10 10 10 6 0
10 -4 10 -10z m1023 -10 c3 -11 1 -18 -4 -14 -5 3 -9 12 -9 20 0 20 7 17 13
-6z m2017 -4 c0 -3 -4 -8 -10 -11 -5 -3 -10 -1 -10 4 0 6 5 11 10 11 6 0 10
-2 10 -4z m110 0 c0 -2 -7 -6 -15 -10 -8 -3 -15 -1 -15 4 0 6 7 10 15 10 8 0
15 -2 15 -4z m-3142 -41 c-3 -3 -9 2 -12 12 -6 14 -5 15 5 6 7 -7 10 -15 7
-18z m1012 -15 c-6 -12 -14 -20 -17 -17 -2 3 1 14 8 26 17 26 24 19 9 -9z
m-1011 -40 c0 -10 -3 -8 -9 5 -12 27 -12 43 0 25 5 -8 9 -22 9 -30z m41 -10
c8 -5 11 -10 5 -10 -5 0 -17 5 -25 10 -8 5 -10 10 -5 10 6 0 17 -5 25 -10z
m577 4 c-3 -3 -12 -4 -19 -1 -8 3 -5 6 6 6 11 1 17 -2 13 -5z m293 -4 c-8 -5
-26 -9 -40 -9 -23 1 -23 2 5 9 43 11 52 11 35 0z m-232 -17 c-10 -2 -26 -2
-35 0 -10 3 -2 5 17 5 19 0 27 -2 18 -5z m-115 -20 c-7 -2 -21 -2 -30 0 -10 3
-4 5 12 5 17 0 24 -2 18 -5z m-113 -23 c0 -5 -4 -10 -10 -10 -5 0 -10 5 -10
10 0 6 5 10 10 10 6 0 10 -4 10 -10z m-97 -27 c-7 -2 -19 -2 -25 0 -7 3 -2 5
12 5 14 0 19 -2 13 -5z m92 -203 c10 -11 16 -20 13 -20 -3 0 -13 9 -23 20 -10
11 -16 20 -13 20 3 0 13 -9 23 -20z m65 -65 c13 -14 21 -25 18 -25 -2 0 -15
11 -28 25 -13 14 -21 25 -18 25 2 0 15 -11 28 -25z"/>
<path d="M5125 8513 c-47 -5 -105 -23 -105 -32 0 -5 -11 -25 -25 -46 -14 -20
-35 -60 -45 -88 -18 -47 -18 -52 -3 -69 15 -17 17 -17 47 2 84 55 139 72 259
81 77 6 124 6 137 -1 25 -13 28 -13 39 9 17 30 -37 130 -61 115 -5 -3 -20 4
-34 15 -22 18 -40 21 -103 20 -42 -1 -89 -4 -106 -6z"/>
<path d="M5284 8316 c-56 -6 -107 -16 -115 -22 -8 -6 -33 -21 -56 -33 -37 -18
-63 -46 -63 -65 0 -3 9 -6 21 -6 11 0 48 -11 82 -24 86 -33 117 -37 175 -22
27 8 61 11 75 9 38 -7 41 13 12 73 -26 53 -26 69 -2 69 21 0 13 30 -8 31 -11
1 -65 -4 -121 -10z m-34 -45 c0 -5 -9 -12 -19 -16 -11 -3 -24 -19 -30 -35 -11
-33 -17 -35 -56 -20 -42 16 -28 42 35 62 66 20 70 21 70 9z m80 -67 c0 -8 -7
-14 -15 -14 -15 0 -21 21 -9 33 10 9 24 -2 24 -19z"/>
<path d="M5615 8013 c8 -121 20 -170 44 -183 24 -13 32 -55 14 -80 -21 -30
-99 -28 -142 4 -18 13 -53 30 -77 37 -44 13 -45 15 -39 46 7 39 -8 50 -35 23
-39 -39 -15 -93 47 -105 21 -4 54 -18 72 -33 26 -19 50 -27 93 -30 84 -6 104
1 119 45 17 51 13 80 -22 132 -20 31 -29 58 -30 90 -1 25 -2 51 -3 56 -12 74
-20 95 -32 95 -13 0 -14 -15 -9 -97z"/>
<path d="M5289 7810 c-23 -13 -98 -37 -141 -44 l-38 -7 0 -59 c0 -58 14 -85
31 -59 5 8 6 22 3 32 -14 46 85 -19 115 -75 54 -103 81 -141 112 -162 33 -23
38 -23 123 -13 74 9 93 16 118 38 22 21 28 35 27 61 -2 18 3 43 9 55 20 36 5
51 -56 58 -32 4 -61 8 -67 9 -5 2 -32 -3 -59 -11 -71 -21 -136 -9 -210 39 -33
21 -64 46 -69 54 -9 15 -1 19 97 53 28 10 52 23 54 29 4 14 -26 15 -49 2z
m263 -275 c27 -4 49 -13 52 -22 8 -19 -1 -33 -20 -33 -9 0 -12 -5 -8 -12 4 -7
3 -8 -4 -4 -6 3 -41 2 -77 -4 -59 -9 -71 -8 -97 7 -16 10 -39 33 -50 51 l-20
33 34 -21 c32 -18 40 -19 87 -8 50 11 51 12 33 32 -17 21 -17 21 3 4 11 -9 41
-19 67 -23z"/>
<path d="M4940 7796 c0 -7 9 -20 21 -27 12 -9 31 -44 44 -84 13 -39 30 -70 37
-70 27 0 -9 128 -47 169 -26 28 -55 34 -55 12z"/>
<path d="M4881 6651 c-24 -33 -31 -64 -16 -70 11 -4 55 65 55 87 0 21 -18 13
-39 -17z"/>
<path d="M6073 4379 c-18 -12 -33 -24 -33 -29 0 -4 -36 -31 -80 -61 -44 -30
-80 -57 -80 -61 0 -15 23 -7 66 22 24 17 63 43 87 59 51 35 80 66 76 80 -2 6
-18 1 -36 -10z"/>
<path d="M9223 4703 c-33 -3 -43 -8 -43 -22 0 -14 17 -24 68 -41 99 -33 160
-68 220 -129 45 -45 56 -51 67 -40 17 18 5 90 -25 148 -34 68 -142 99 -287 84z"/>
<path d="M8887 4633 c-4 -3 -7 -19 -7 -35 0 -48 -124 -268 -151 -268 -12 0
-11 -51 2 -88 15 -44 83 -74 159 -70 42 2 56 7 58 20 3 14 -6 16 -57 15 -113
-3 -148 60 -84 154 43 66 95 186 101 235 4 40 -4 55 -21 37z"/>
<path d="M9167 4583 c-3 -5 -5 -20 -5 -36 0 -15 -12 -46 -27 -69 -31 -47 -28
-59 25 -95 25 -18 47 -23 92 -23 68 0 178 28 178 45 0 31 -60 83 -189 162 -37
23 -66 29 -74 16z m63 -93 c0 -13 -7 -20 -20 -20 -13 0 -20 7 -20 20 0 13 7
20 20 20 13 0 20 -7 20 -20z m138 -46 c38 -27 26 -40 -49 -54 -61 -12 -77 -12
-112 1 -38 13 -68 42 -56 54 3 3 22 -2 42 -10 50 -21 90 -19 112 5 22 24 34
25 63 4z"/>
<path d="M8702 4139 c-17 -6 -22 -16 -22 -43 0 -19 -4 -38 -10 -41 -35 -22 22
-105 73 -105 15 0 37 -5 48 -11 54 -29 206 1 240 48 8 10 24 24 37 31 20 11
22 10 22 -8 0 -23 18 -27 26 -5 11 27 -12 68 -47 87 -36 19 -51 9 -27 -19 12
-15 9 -16 -28 -11 -23 3 -55 16 -72 28 -20 15 -38 21 -54 17 -13 -3 -41 1 -63
9 -67 25 -100 31 -123 23z m88 -49 c24 -12 59 -20 89 -20 27 0 53 -4 56 -10
10 -16 -116 -11 -145 5 -14 8 -37 14 -52 15 -27 0 -35 9 -21 23 11 12 32 8 73
-13z m-8 -60 c37 -16 60 -19 132 -15 96 6 111 -6 41 -32 -65 -24 -92 -26 -141
-9 -26 9 -58 16 -70 16 -24 0 -49 33 -39 50 9 15 27 12 77 -10z"/>
<path d="M5405 3950 c-10 -16 44 -32 107 -32 76 0 181 13 173 21 -4 3 -57 6
-118 7 -62 0 -122 4 -134 8 -12 4 -24 2 -28 -4z"/>
<path d="M5164 3897 c-68 -50 -128 -98 -201 -161 -18 -15 -30 -32 -27 -37 6
-11 60 24 117 78 23 21 58 50 78 64 40 26 119 96 119 104 0 12 -19 1 -86 -48z"/>
<path d="M6881 3464 c-50 -68 -76 -92 -53 -47 15 29 25 113 13 113 -6 0 -13
-12 -17 -27 -3 -16 -15 -55 -25 -87 -23 -73 -23 -76 -1 -76 23 0 52 31 87 95
15 28 36 62 47 78 11 15 16 27 11 26 -4 0 -32 -34 -62 -75z"/>
<path d="M6080 3315 c0 -26 32 -33 180 -39 181 -8 283 -15 289 -21 2 -3 -11
-5 -30 -6 -42 -1 -54 -2 -219 -29 -156 -26 -220 -49 -220 -80 0 -25 14 -26 38
-2 10 10 45 24 77 32 33 7 65 17 72 22 6 5 14 5 17 0 3 -6 23 -6 48 -1 24 5
105 17 181 28 132 18 178 34 159 53 -10 10 -162 23 -377 34 -77 3 -148 10
-157 15 -26 14 -58 11 -58 -6z"/>
<path d="M7640 1544 c-22 -4 -115 -19 -325 -53 -93 -15 -130 -26 -125 -36 6
-12 8 -12 85 9 73 20 220 42 338 52 57 4 86 11 84 18 -4 12 -21 15 -57 10z"/>
<path d="M7505 1476 c-68 -18 -136 -46 -225 -95 -171 -94 -297 -152 -357 -163
-56 -10 -65 -10 -83 7 -11 10 -23 15 -28 11 -12 -13 30 -36 64 -36 85 0 224
52 341 126 140 89 285 147 366 146 31 -1 57 3 57 9 0 13 -75 10 -135 -5z"/>
<path d="M5325 1295 c-89 -15 -177 -41 -240 -70 -27 -13 -61 -29 -75 -35 -37
-15 -79 -42 -150 -94 -34 -25 -68 -46 -76 -46 -8 0 -14 -4 -14 -10 0 -17 26
-11 64 15 20 14 41 25 45 25 5 0 14 6 20 14 15 18 185 116 200 116 7 0 36 11
64 25 49 23 215 55 286 55 17 0 31 5 31 10 0 13 -65 11 -155 -5z"/>
<path d="M5450 1274 c-160 -23 -294 -56 -305 -74 -9 -14 9 -12 47 4 40 17 106
32 174 41 37 5 54 3 65 -7 8 -8 55 -20 109 -27 103 -13 180 -39 180 -58 0 -7
5 -13 10 -13 6 0 10 8 10 19 0 27 -77 57 -180 71 -47 6 -87 14 -90 17 -3 3 45
2 106 -2 72 -4 114 -3 118 4 4 5 1 13 -5 16 -10 7 -206 14 -239 9z"/>
<path d="M11077 3467 c-20 -18 -37 -35 -37 -38 0 -4 26 -14 58 -23 98 -30 110
-37 172 -98 40 -39 67 -58 77 -54 10 4 13 12 8 24 -4 9 -10 29 -14 44 -5 24
-100 118 -119 118 -4 0 -22 14 -41 30 -42 38 -57 37 -104 -3z"/>
<path d="M11001 3361 c-20 -13 -6 -44 16 -37 21 6 51 -9 40 -21 -5 -4 -12 -1
-17 7 -11 18 -41 -18 -83 -98 -36 -69 -28 -83 72 -123 66 -26 84 -29 160 -27
95 3 92 1 77 73 -19 90 -46 130 -112 171 -81 49 -132 68 -153 55z m97 -133
c-5 -34 -38 -37 -38 -4 0 20 5 26 21 26 15 0 20 -5 17 -22z m-62 -85 c50 -32
144 -10 159 37 10 32 22 24 34 -24 16 -63 16 -63 -34 -69 -46 -7 -157 20 -202
49 -19 12 -20 17 -11 51 16 58 23 62 26 15 2 -32 9 -46 28 -59z"/>
<path d="M10728 3249 c-10 -5 -24 -31 -31 -57 -18 -60 -53 -127 -90 -174 -36
-45 -32 -69 17 -117 l34 -33 98 9 c94 8 99 9 102 32 3 20 0 23 -20 18 -56 -14
-156 -19 -175 -8 -37 19 -36 54 2 112 37 57 89 188 83 212 -2 12 -7 13 -20 6z"/>
<path d="M10575 2747 c-22 -19 -25 -26 -17 -47 5 -14 21 -31 35 -39 14 -7 30
-24 36 -37 20 -46 75 -52 131 -16 25 16 93 39 138 47 36 5 39 15 13 36 -29 24
-53 25 -49 2 5 -30 -28 -25 -71 12 -40 33 -57 40 -88 36 -7 -1 -26 5 -42 14
-40 20 -55 19 -86 -8z m75 -33 c9 -10 26 -14 49 -12 26 2 35 -1 33 -10 -1 -8
2 -11 7 -8 5 4 12 2 15 -3 12 -19 -35 -22 -89 -6 -30 8 -55 17 -55 19 0 3 -3
11 -6 20 -8 21 29 22 46 0z m60 -90 c0 -2 -9 -4 -20 -4 -11 0 -20 4 -20 9 0 5
9 7 20 4 11 -3 20 -7 20 -9z"/>
<path d="M9979 2360 c-36 -21 -71 -46 -78 -54 -21 -26 5 -26 40 -1 19 13 44
29 56 34 11 5 24 15 28 20 3 6 11 11 18 11 6 0 -4 -16 -23 -35 -21 -21 -30
-38 -24 -44 11 -11 116 37 109 50 -4 5 -14 5 -26 -2 -20 -10 -20 -9 -5 19 29
55 -5 56 -95 2z"/>
<path d="M10926 2133 c-6 -14 -5 -15 5 -6 7 7 10 15 7 18 -3 3 -9 -2 -12 -12z"/>
<path d="M10980 2045 c7 -8 16 -12 21 -9 13 8 1 24 -18 24 -13 0 -13 -3 -3
-15z"/>
<path d="M3975 5146 c-73 -24 -141 -60 -123 -64 10 -2 43 8 74 22 32 15 74 29
95 32 42 7 54 24 17 23 -13 0 -41 -6 -63 -13z"/>
<path d="M3877 5023 c-20 -16 -36 -31 -37 -36 0 -12 53 18 74 42 27 30 6 26
-37 -6z"/>
<path d="M3585 4692 c-11 -18 -23 -32 -27 -32 -4 0 -21 -21 -39 -46 -22 -33
-28 -49 -20 -57 13 -13 10 -15 46 48 15 28 37 60 47 72 11 12 18 27 16 34 -3
8 -12 0 -23 -19z"/>
<path d="M3947 3313 c-16 -16 -4 -45 26 -63 34 -21 150 -29 161 -11 6 9 -11
14 -94 27 -55 8 -77 18 -61 28 6 4 11 11 11 17 0 10 -33 12 -43 2z"/>
</g>
</svg>
